<svg width="100" height="45" viewBox="0 0 100 45" fill="none" xmlns="http://www.w3.org/2000/svg">
<rect width="100" height="45" rx="5" fill="#92C69A"/>
<path d="M8.50852 22H7.19034L9.19886 16.1818H10.7841L12.7898 22H11.4716L10.0142 17.5114H9.96875L8.50852 22ZM8.42614 19.7131H11.5398V20.6733H8.42614V19.7131ZM14.5639 20.7443L14.5668 19.2926H14.7429L16.1406 17.6364H17.5298L15.652 19.8295H15.3651L14.5639 20.7443ZM13.4673 22V16.1818H14.6776V22H13.4673ZM16.1946 22L14.9105 20.0994L15.7173 19.2443L17.6122 22H16.1946ZM21.7543 18.8807L20.6463 18.9489C20.6274 18.8542 20.5866 18.7689 20.5241 18.6932C20.4616 18.6155 20.3793 18.554 20.277 18.5085C20.1766 18.4612 20.0563 18.4375 19.9162 18.4375C19.7287 18.4375 19.5705 18.4773 19.4418 18.5568C19.313 18.6345 19.2486 18.7386 19.2486 18.8693C19.2486 18.9735 19.2902 19.0616 19.3736 19.1335C19.4569 19.2055 19.5999 19.2633 19.8026 19.3068L20.5923 19.4659C21.0166 19.553 21.3329 19.6932 21.5412 19.8864C21.7495 20.0795 21.8537 20.3333 21.8537 20.6477C21.8537 20.9337 21.7694 21.1847 21.6009 21.4006C21.4342 21.6165 21.205 21.785 20.9134 21.9062C20.6236 22.0256 20.2893 22.0852 19.9105 22.0852C19.3329 22.0852 18.8726 21.965 18.5298 21.7244C18.1889 21.482 17.9891 21.1525 17.9304 20.7358L19.1207 20.6733C19.1567 20.8494 19.2438 20.9839 19.3821 21.0767C19.5204 21.1676 19.6974 21.2131 19.9134 21.2131C20.1255 21.2131 20.2959 21.1723 20.4247 21.0909C20.5554 21.0076 20.6217 20.9006 20.6236 20.7699C20.6217 20.66 20.5753 20.5701 20.4844 20.5C20.3935 20.428 20.2533 20.3731 20.0639 20.3352L19.3082 20.1847C18.8821 20.0994 18.5649 19.9517 18.3565 19.7415C18.1501 19.5312 18.0469 19.2633 18.0469 18.9375C18.0469 18.6572 18.1226 18.4157 18.2741 18.2131C18.4276 18.0104 18.6425 17.8542 18.919 17.7443C19.1974 17.6345 19.5232 17.5795 19.8963 17.5795C20.4474 17.5795 20.8812 17.696 21.1974 17.929C21.5156 18.1619 21.7012 18.4792 21.7543 18.8807ZM24.6044 22.0852C24.1555 22.0852 23.7692 21.9943 23.4453 21.8125C23.1233 21.6288 22.8752 21.3693 22.701 21.0341C22.5268 20.697 22.4396 20.2983 22.4396 19.8381C22.4396 19.3892 22.5268 18.9953 22.701 18.6562C22.8752 18.3172 23.1205 18.053 23.4368 17.8636C23.755 17.6742 24.1281 17.5795 24.5561 17.5795C24.844 17.5795 25.112 17.6259 25.3601 17.7188C25.6101 17.8097 25.8279 17.947 26.0135 18.1307C26.201 18.3144 26.3468 18.5455 26.451 18.8239C26.5552 19.1004 26.6072 19.4242 26.6072 19.7955V20.1278H22.9226V19.3778H25.468C25.468 19.2036 25.4302 19.0492 25.3544 18.9148C25.2786 18.7803 25.1735 18.6752 25.0391 18.5994C24.9065 18.5218 24.7521 18.483 24.576 18.483C24.3923 18.483 24.2294 18.5256 24.0874 18.6108C23.9472 18.6941 23.8374 18.8068 23.7578 18.9489C23.6783 19.089 23.6375 19.2453 23.6357 19.4176V20.1307C23.6357 20.3466 23.6754 20.5331 23.755 20.6903C23.8364 20.8475 23.951 20.9688 24.0987 21.054C24.2464 21.1392 24.4216 21.1818 24.6243 21.1818C24.7588 21.1818 24.8819 21.1629 24.9936 21.125C25.1054 21.0871 25.201 21.0303 25.2805 20.9545C25.3601 20.8788 25.4207 20.786 25.4624 20.6761L26.5817 20.75C26.5249 21.0189 26.4084 21.2538 26.2322 21.4545C26.058 21.6534 25.8326 21.8087 25.5561 21.9205C25.2815 22.0303 24.9643 22.0852 24.6044 22.0852ZM28.6072 16.1818V22H27.397V16.1818H28.6072ZM31.5653 22.0852C31.1165 22.0852 30.7301 21.9943 30.4062 21.8125C30.0843 21.6288 29.8362 21.3693 29.6619 21.0341C29.4877 20.697 29.4006 20.2983 29.4006 19.8381C29.4006 19.3892 29.4877 18.9953 29.6619 18.6562C29.8362 18.3172 30.0814 18.053 30.3977 17.8636C30.7159 17.6742 31.089 17.5795 31.517 17.5795C31.8049 17.5795 32.0729 17.6259 32.321 17.7188C32.571 17.8097 32.7888 17.947 32.9744 18.1307C33.1619 18.3144 33.3078 18.5455 33.4119 18.8239C33.5161 19.1004 33.5682 19.4242 33.5682 19.7955V20.1278H29.8835V19.3778H32.429C32.429 19.2036 32.3911 19.0492 32.3153 18.9148C32.2396 18.7803 32.1345 18.6752 32 18.5994C31.8674 18.5218 31.7131 18.483 31.5369 18.483C31.3532 18.483 31.1903 18.5256 31.0483 18.6108C30.9081 18.6941 30.7983 18.8068 30.7188 18.9489C30.6392 19.089 30.5985 19.2453 30.5966 19.4176V20.1307C30.5966 20.3466 30.6364 20.5331 30.7159 20.6903C30.7973 20.8475 30.9119 20.9688 31.0597 21.054C31.2074 21.1392 31.3826 21.1818 31.5852 21.1818C31.7197 21.1818 31.8428 21.1629 31.9545 21.125C32.0663 21.0871 32.1619 21.0303 32.2415 20.9545C32.321 20.8788 32.3816 20.786 32.4233 20.6761L33.5426 20.75C33.4858 21.0189 33.3693 21.2538 33.1932 21.4545C33.0189 21.6534 32.7936 21.8087 32.517 21.9205C32.2424 22.0303 31.9252 22.0852 31.5653 22.0852ZM34.358 22V17.6364H35.5312V18.3977H35.5767C35.6563 18.1269 35.7898 17.9223 35.9773 17.7841C36.1648 17.6439 36.3807 17.5739 36.625 17.5739C36.6856 17.5739 36.7509 17.5777 36.821 17.5852C36.8911 17.5928 36.9527 17.6032 37.0057 17.6165V18.6903C36.9489 18.6733 36.8703 18.6581 36.7699 18.6449C36.6695 18.6316 36.5777 18.625 36.4943 18.625C36.3163 18.625 36.1572 18.6638 36.017 18.7415C35.8788 18.8172 35.7689 18.9233 35.6875 19.0597C35.608 19.196 35.5682 19.3532 35.5682 19.5312V22H34.358ZM38.7507 22.0824C38.4723 22.0824 38.2242 22.0341 38.0064 21.9375C37.7886 21.839 37.6162 21.6941 37.4893 21.5028C37.3643 21.3097 37.3018 21.0691 37.3018 20.7812C37.3018 20.5388 37.3464 20.3352 37.4354 20.1705C37.5244 20.0057 37.6456 19.8731 37.799 19.7727C37.9524 19.6723 38.1267 19.5966 38.3217 19.5455C38.5187 19.4943 38.7251 19.4583 38.9411 19.4375C39.1948 19.411 39.3994 19.3864 39.5547 19.3636C39.71 19.339 39.8227 19.303 39.8928 19.2557C39.9628 19.2083 39.9979 19.1383 39.9979 19.0455V19.0284C39.9979 18.8485 39.9411 18.7093 39.8274 18.6108C39.7157 18.5123 39.5566 18.4631 39.3501 18.4631C39.1323 18.4631 38.959 18.5114 38.8303 18.608C38.7015 18.7027 38.6162 18.822 38.5746 18.9659L37.4553 18.875C37.5121 18.6098 37.6238 18.3807 37.7905 18.1875C37.9571 17.9924 38.1721 17.8428 38.4354 17.7386C38.7005 17.6326 39.0073 17.5795 39.3558 17.5795C39.5982 17.5795 39.8303 17.608 40.0518 17.6648C40.2753 17.7216 40.4732 17.8097 40.6456 17.929C40.8198 18.0483 40.9571 18.2017 41.0575 18.3892C41.1579 18.5748 41.2081 18.7973 41.2081 19.0568V22H40.0604V21.3949H40.0263C39.9562 21.5312 39.8625 21.6515 39.745 21.7557C39.6276 21.858 39.4865 21.9384 39.3217 21.9972C39.157 22.054 38.9666 22.0824 38.7507 22.0824ZM39.0973 21.2472C39.2753 21.2472 39.4325 21.2121 39.5689 21.142C39.7053 21.0701 39.8123 20.9735 39.8899 20.8523C39.9676 20.7311 40.0064 20.5937 40.0064 20.4403V19.9773C39.9685 20.0019 39.9164 20.0246 39.8501 20.0455C39.7857 20.0644 39.7128 20.0824 39.6314 20.0994C39.55 20.1146 39.4685 20.1288 39.3871 20.142C39.3056 20.1534 39.2318 20.1638 39.1655 20.1733C39.0234 20.1941 38.8994 20.2273 38.7933 20.2727C38.6873 20.3182 38.6049 20.3797 38.5462 20.4574C38.4875 20.5331 38.4581 20.6278 38.4581 20.7415C38.4581 20.9062 38.5178 21.0322 38.6371 21.1193C38.7583 21.2045 38.9117 21.2472 39.0973 21.2472ZM45.7777 18.8807L44.6697 18.9489C44.6508 18.8542 44.6101 18.7689 44.5476 18.6932C44.4851 18.6155 44.4027 18.554 44.3004 18.5085C44.2 18.4612 44.0798 18.4375 43.9396 18.4375C43.7521 18.4375 43.594 18.4773 43.4652 18.5568C43.3364 18.6345 43.272 18.7386 43.272 18.8693C43.272 18.9735 43.3137 19.0616 43.397 19.1335C43.4804 19.2055 43.6233 19.2633 43.826 19.3068L44.6158 19.4659C45.04 19.553 45.3563 19.6932 45.5646 19.8864C45.773 20.0795 45.8771 20.3333 45.8771 20.6477C45.8771 20.9337 45.7929 21.1847 45.6243 21.4006C45.4576 21.6165 45.2285 21.785 44.9368 21.9062C44.647 22.0256 44.3127 22.0852 43.9339 22.0852C43.3563 22.0852 42.8961 21.965 42.5533 21.7244C42.2124 21.482 42.0125 21.1525 41.9538 20.7358L43.1442 20.6733C43.1802 20.8494 43.2673 20.9839 43.4055 21.0767C43.5438 21.1676 43.7209 21.2131 43.9368 21.2131C44.1489 21.2131 44.3194 21.1723 44.4482 21.0909C44.5788 21.0076 44.6451 20.9006 44.647 20.7699C44.6451 20.66 44.5987 20.5701 44.5078 20.5C44.4169 20.428 44.2768 20.3731 44.0874 20.3352L43.3317 20.1847C42.9055 20.0994 42.5883 19.9517 42.38 19.7415C42.1735 19.5312 42.0703 19.2633 42.0703 18.9375C42.0703 18.6572 42.1461 18.4157 42.2976 18.2131C42.451 18.0104 42.666 17.8542 42.9425 17.7443C43.2209 17.6345 43.5466 17.5795 43.9197 17.5795C44.4709 17.5795 44.9046 17.696 45.2209 17.929C45.5391 18.1619 45.7247 18.4792 45.7777 18.8807ZM46.6392 22V17.6364H47.8494V22H46.6392ZM47.2472 17.0739C47.0672 17.0739 46.9129 17.0142 46.7841 16.8949C46.6572 16.7737 46.5938 16.6288 46.5938 16.4602C46.5938 16.2936 46.6572 16.1506 46.7841 16.0312C46.9129 15.91 47.0672 15.8494 47.2472 15.8494C47.4271 15.8494 47.5805 15.91 47.7074 16.0312C47.8362 16.1506 47.9006 16.2936 47.9006 16.4602C47.9006 16.6288 47.8362 16.7737 47.7074 16.8949C47.5805 17.0142 47.4271 17.0739 47.2472 17.0739Z" fill="white"/>
<path d="M7.68608 31L9.96307 26.4957V26.456H7.33807V25.9091H10.5994V26.4858L8.33239 31H7.68608ZM15.6922 28.1811V28.728H13.4649V28.1811H15.6922ZM20.304 25.8395C20.5128 25.8411 20.7216 25.8809 20.9304 25.9588C21.1392 26.0367 21.3298 26.166 21.5021 26.3466C21.6745 26.5256 21.8129 26.77 21.9173 27.0799C22.0217 27.3898 22.0739 27.7784 22.0739 28.2457C22.0739 28.6982 22.0308 29.1 21.9446 29.4513C21.8601 29.801 21.7375 30.096 21.5767 30.3363C21.4176 30.5766 21.2237 30.7589 20.995 30.8832C20.768 31.0075 20.5111 31.0696 20.2244 31.0696C19.9394 31.0696 19.685 31.0133 19.4613 30.9006C19.2392 30.7862 19.0569 30.628 18.9144 30.4258C18.7736 30.2219 18.6832 29.9858 18.6435 29.7173H19.25C19.3047 29.951 19.4132 30.1441 19.5756 30.2965C19.7397 30.4473 19.956 30.5227 20.2244 30.5227C20.6172 30.5227 20.9271 30.3512 21.1541 30.0082C21.3828 29.6651 21.4972 29.1804 21.4972 28.554H21.4574C21.3646 28.6932 21.2544 28.8133 21.1268 28.9144C20.9992 29.0155 20.8575 29.0934 20.7017 29.1481C20.5459 29.2028 20.3802 29.2301 20.2045 29.2301C19.9129 29.2301 19.6452 29.158 19.4016 29.0138C19.1597 28.868 18.9658 28.6683 18.82 28.4148C18.6758 28.1596 18.6037 27.8679 18.6037 27.5398C18.6037 27.2282 18.6733 26.9432 18.8125 26.6847C18.9534 26.4245 19.1506 26.2173 19.4041 26.0632C19.6593 25.9091 19.9593 25.8345 20.304 25.8395ZM20.304 26.3864C20.0952 26.3864 19.9071 26.4386 19.7397 26.543C19.574 26.6457 19.4422 26.7849 19.3445 26.9606C19.2483 27.1346 19.2003 27.3277 19.2003 27.5398C19.2003 27.7519 19.2467 27.945 19.3395 28.119C19.4339 28.2913 19.5624 28.4289 19.7248 28.5316C19.8888 28.6327 20.0753 28.6832 20.2841 28.6832C20.4415 28.6832 20.5882 28.6526 20.7241 28.5913C20.86 28.5283 20.9785 28.4429 21.0795 28.3352C21.1823 28.2259 21.2627 28.1024 21.3207 27.9648C21.3787 27.8256 21.4077 27.6806 21.4077 27.5298C21.4077 27.331 21.3596 27.1445 21.2635 26.9705C21.169 26.7965 21.0381 26.6557 20.8707 26.5479C20.705 26.4402 20.5161 26.3864 20.304 26.3864ZM27.8937 27.1818C27.8639 26.9299 27.7429 26.7344 27.5308 26.5952C27.3187 26.456 27.0585 26.3864 26.7503 26.3864C26.5249 26.3864 26.3277 26.4228 26.1586 26.4957C25.9913 26.5687 25.8604 26.6689 25.7659 26.7965C25.6731 26.9241 25.6267 27.0691 25.6267 27.2315C25.6267 27.3674 25.659 27.4843 25.7236 27.582C25.7899 27.6781 25.8744 27.7585 25.9772 27.8232C26.0799 27.8861 26.1876 27.9383 26.3003 27.9798C26.413 28.0195 26.5166 28.0518 26.6111 28.0767L27.1281 28.2159C27.2607 28.2507 27.4082 28.2988 27.5706 28.3601C27.7346 28.4214 27.8912 28.5051 28.0404 28.6112C28.1912 28.7156 28.3155 28.8498 28.4133 29.0138C28.511 29.1779 28.5599 29.3793 28.5599 29.6179C28.5599 29.893 28.4878 30.1416 28.3437 30.3636C28.2011 30.5857 27.9923 30.7622 27.7172 30.8931C27.4438 31.024 27.1115 31.0895 26.7204 31.0895C26.3559 31.0895 26.0402 31.0307 25.7733 30.913C25.5082 30.7953 25.2994 30.6313 25.1469 30.4208C24.9961 30.2103 24.9108 29.9659 24.8909 29.6875H25.5273C25.5438 29.8797 25.6085 30.0388 25.7211 30.1648C25.8355 30.2891 25.9797 30.3819 26.1537 30.4432C26.3293 30.5028 26.5183 30.5327 26.7204 30.5327C26.9558 30.5327 27.1671 30.4946 27.3543 30.4183C27.5416 30.3404 27.6899 30.2327 27.7993 30.0952C27.9086 29.956 27.9633 29.7936 27.9633 29.608C27.9633 29.4389 27.9161 29.3014 27.8216 29.1953C27.7272 29.0893 27.6029 29.0031 27.4488 28.9368C27.2947 28.8705 27.1281 28.8125 26.9491 28.7628L26.3227 28.5838C25.925 28.4695 25.6101 28.3062 25.3781 28.0941C25.1461 27.882 25.0301 27.6044 25.0301 27.2614C25.0301 26.9763 25.1072 26.7277 25.2613 26.5156C25.4171 26.3018 25.6259 26.1361 25.8877 26.0185C26.1512 25.8991 26.4453 25.8395 26.7702 25.8395C27.0983 25.8395 27.3899 25.8983 27.6452 26.016C27.9004 26.132 28.1025 26.2911 28.2517 26.4933C28.4025 26.6954 28.482 26.925 28.4903 27.1818H27.8937ZM29.5735 25.9091H30.3093L32.0394 30.1349H32.0991L33.8292 25.9091H34.565V31H33.9883V27.1321H33.9386L32.3477 31H31.7908L30.1999 27.1321H30.1502V31H29.5735V25.9091ZM35.801 31V25.9091H37.5212C37.9206 25.9091 38.2471 25.9812 38.5006 26.1254C38.7558 26.2679 38.9448 26.4609 39.0674 26.7045C39.19 26.9482 39.2513 27.2199 39.2513 27.5199C39.2513 27.8198 39.19 28.0924 39.0674 28.3377C38.9464 28.583 38.7591 28.7785 38.5056 28.9244C38.252 29.0685 37.9272 29.1406 37.5312 29.1406H36.2982V28.5938H37.5113C37.7847 28.5938 38.0043 28.5465 38.17 28.4521C38.3357 28.3576 38.4559 28.23 38.5305 28.0692C38.6067 27.9068 38.6448 27.7237 38.6448 27.5199C38.6448 27.3161 38.6067 27.1338 38.5305 26.973C38.4559 26.8123 38.3349 26.6863 38.1675 26.5952C38.0001 26.5024 37.7781 26.456 37.5013 26.456H36.4175V31H35.801ZM42.3424 28.4545C42.3424 27.8281 42.4236 27.2522 42.586 26.7269C42.7501 26.1999 42.9838 25.7152 43.287 25.2727H43.8041C43.6847 25.4368 43.5729 25.639 43.4685 25.8793C43.3657 26.1179 43.2754 26.3806 43.1975 26.6673C43.1196 26.9523 43.0583 27.2473 43.0136 27.5522C42.9705 27.8571 42.949 28.1579 42.949 28.4545C42.949 28.849 42.9871 29.2492 43.0633 29.6552C43.1395 30.0612 43.2423 30.4382 43.3715 30.7862C43.5008 31.1342 43.645 31.4176 43.8041 31.6364H43.287C42.9838 31.1939 42.7501 30.71 42.586 30.1847C42.4236 29.6577 42.3424 29.081 42.3424 28.4545ZM44.6598 31V30.5526L46.3402 28.7131C46.5374 28.4976 46.6998 28.3104 46.8274 28.1513C46.955 27.9905 47.0495 27.8397 47.1108 27.6989C47.1738 27.5563 47.2053 27.4072 47.2053 27.2514C47.2053 27.0724 47.1622 26.9175 47.076 26.7866C46.9915 26.6557 46.8755 26.5546 46.728 26.4833C46.5805 26.4121 46.4148 26.3764 46.2308 26.3764C46.0353 26.3764 45.8646 26.417 45.7188 26.4982C45.5746 26.5778 45.4627 26.6896 45.3832 26.8338C45.3053 26.978 45.2663 27.147 45.2663 27.3409H44.6797C44.6797 27.0426 44.7485 26.7808 44.886 26.5554C45.0236 26.33 45.2108 26.1544 45.4478 26.0284C45.6864 25.9025 45.9541 25.8395 46.2507 25.8395C46.549 25.8395 46.8133 25.9025 47.0437 26.0284C47.274 26.1544 47.4547 26.3242 47.5856 26.538C47.7165 26.7518 47.782 26.9896 47.782 27.2514C47.782 27.4387 47.748 27.6218 47.68 27.8008C47.6138 27.9781 47.4978 28.1761 47.332 28.3949C47.168 28.612 46.9401 28.8771 46.6484 29.1903L45.505 30.4134V30.4531H47.8714V31H44.6598ZM50.5586 31.0696C50.1841 31.0696 49.8651 30.9677 49.6016 30.7638C49.3381 30.5584 49.1367 30.2609 48.9975 29.8714C48.8583 29.4804 48.7887 29.008 48.7887 28.4545C48.7887 27.9044 48.8583 27.4345 48.9975 27.0451C49.1384 26.654 49.3406 26.3557 49.604 26.1502C49.8692 25.9431 50.1874 25.8395 50.5586 25.8395C50.9298 25.8395 51.2472 25.9431 51.5107 26.1502C51.7758 26.3557 51.978 26.654 52.1172 27.0451C52.258 27.4345 52.3285 27.9044 52.3285 28.4545C52.3285 29.008 52.2589 29.4804 52.1197 29.8714C51.9805 30.2609 51.7791 30.5584 51.5156 30.7638C51.2521 30.9677 50.9331 31.0696 50.5586 31.0696ZM50.5586 30.5227C50.9298 30.5227 51.2182 30.3437 51.4237 29.9858C51.6291 29.6278 51.7319 29.1174 51.7319 28.4545C51.7319 28.0137 51.6847 27.6384 51.5902 27.3285C51.4974 27.0186 51.3632 26.7824 51.1875 26.62C51.0135 26.4576 50.8039 26.3764 50.5586 26.3764C50.1907 26.3764 49.9032 26.5579 49.696 26.9208C49.4889 27.2821 49.3853 27.7933 49.3853 28.4545C49.3853 28.8954 49.4317 29.2699 49.5245 29.5781C49.6173 29.8864 49.7507 30.1209 49.9247 30.2816C50.1004 30.4424 50.3117 30.5227 50.5586 30.5227ZM54.9933 31.0696C54.6651 31.0696 54.3726 31.0133 54.1158 30.9006C53.8606 30.7879 53.6576 30.6313 53.5067 30.4308C53.3576 30.2286 53.2764 29.9941 53.2631 29.7273H53.8896C53.9028 29.8913 53.9592 30.033 54.0586 30.1523C54.158 30.27 54.2881 30.3612 54.4489 30.4258C54.6096 30.4904 54.7878 30.5227 54.9833 30.5227C55.2021 30.5227 55.396 30.4846 55.565 30.4084C55.734 30.3321 55.8666 30.2261 55.9627 30.0902C56.0588 29.9543 56.1069 29.7969 56.1069 29.6179C56.1069 29.4306 56.0605 29.2657 55.9677 29.1232C55.8749 28.979 55.739 28.8664 55.56 28.7852C55.381 28.704 55.1623 28.6634 54.9038 28.6634H54.4961V28.1165H54.9038C55.1059 28.1165 55.2833 28.08 55.4357 28.0071C55.5898 27.9342 55.71 27.8314 55.7962 27.6989C55.884 27.5663 55.9279 27.4105 55.9279 27.2315C55.9279 27.0592 55.8898 26.9092 55.8136 26.7816C55.7373 26.654 55.6296 26.5546 55.4904 26.4833C55.3529 26.4121 55.1905 26.3764 55.0032 26.3764C54.8275 26.3764 54.6618 26.4087 54.506 26.4734C54.3519 26.5363 54.226 26.6283 54.1282 26.7493C54.0304 26.8686 53.9774 27.0128 53.9691 27.1818H53.3725C53.3825 26.915 53.4628 26.6813 53.6136 26.4808C53.7644 26.2786 53.9616 26.1212 54.2053 26.0085C54.4505 25.8958 54.7198 25.8395 55.0131 25.8395C55.328 25.8395 55.5981 25.9033 55.8235 26.0309C56.0489 26.1568 56.2221 26.3234 56.343 26.5305C56.464 26.7377 56.5245 26.9614 56.5245 27.2017C56.5245 27.4884 56.4491 27.7328 56.2983 27.935C56.1491 28.1372 55.9461 28.2772 55.6893 28.3551V28.3949C56.0108 28.4479 56.2618 28.5846 56.4425 28.805C56.6231 29.0238 56.7134 29.2947 56.7134 29.6179C56.7134 29.8946 56.638 30.1432 56.4872 30.3636C56.3381 30.5824 56.1342 30.7547 55.8757 30.8807C55.6172 31.0066 55.323 31.0696 54.9933 31.0696ZM59.3906 31.0696C59.0161 31.0696 58.6971 30.9677 58.4336 30.7638C58.1701 30.5584 57.9688 30.2609 57.8295 29.8714C57.6903 29.4804 57.6207 29.008 57.6207 28.4545C57.6207 27.9044 57.6903 27.4345 57.8295 27.0451C57.9704 26.654 58.1726 26.3557 58.4361 26.1502C58.7012 25.9431 59.0194 25.8395 59.3906 25.8395C59.7618 25.8395 60.0792 25.9431 60.3427 26.1502C60.6078 26.3557 60.81 26.654 60.9492 27.0451C61.0901 27.4345 61.1605 27.9044 61.1605 28.4545C61.1605 29.008 61.0909 29.4804 60.9517 29.8714C60.8125 30.2609 60.6112 30.5584 60.3477 30.7638C60.0842 30.9677 59.7652 31.0696 59.3906 31.0696ZM59.3906 30.5227C59.7618 30.5227 60.0502 30.3437 60.2557 29.9858C60.4612 29.6278 60.5639 29.1174 60.5639 28.4545C60.5639 28.0137 60.5167 27.6384 60.4222 27.3285C60.3294 27.0186 60.1952 26.7824 60.0195 26.62C59.8455 26.4576 59.6359 26.3764 59.3906 26.3764C59.0227 26.3764 58.7352 26.5579 58.5281 26.9208C58.3209 27.2821 58.2173 27.7933 58.2173 28.4545C58.2173 28.8954 58.2637 29.2699 58.3565 29.5781C58.4493 29.8864 58.5827 30.1209 58.7567 30.2816C58.9324 30.4424 59.1437 30.5227 59.3906 30.5227ZM63.3679 28.4545C63.3679 29.081 63.2859 29.6577 63.1218 30.1847C62.9594 30.71 62.7266 31.1939 62.4233 31.6364H61.9062C62.0256 31.4723 62.1366 31.2701 62.2393 31.0298C62.3438 30.7912 62.4349 30.5294 62.5128 30.2443C62.5907 29.9576 62.6512 29.6618 62.6942 29.3569C62.739 29.0503 62.7614 28.7495 62.7614 28.4545C62.7614 28.0601 62.7232 27.6599 62.647 27.2539C62.5708 26.8479 62.468 26.4709 62.3388 26.1229C62.2095 25.7749 62.0653 25.4915 61.9062 25.2727H62.4233C62.7266 25.7152 62.9594 26.1999 63.1218 26.7269C63.2859 27.2522 63.3679 27.8281 63.3679 28.4545Z" fill="white"/>
</svg>
