<svg width="100" height="45" viewBox="0 0 100 45" fill="none" xmlns="http://www.w3.org/2000/svg">
<rect width="100" height="45" rx="5" fill="#ADADD6"/>
<path d="M7.50568 22V16.1818H11.4261V17.196H8.7358V18.5824H11.2244V19.5966H8.7358V20.9858H11.4375V22H7.50568ZM13.478 20.7443L13.4808 19.2926H13.657L15.0547 17.6364H16.4439L14.5661 19.8295H14.2791L13.478 20.7443ZM12.3814 22V16.1818H13.5916V22H12.3814ZM15.1087 22L13.8246 20.0994L14.6314 19.2443L16.5263 22H15.1087ZM17.0376 23.6364V17.6364H18.2308V18.3693H18.2848C18.3378 18.2519 18.4145 18.1326 18.5149 18.0114C18.6172 17.8883 18.7498 17.786 18.9126 17.7045C19.0774 17.6212 19.282 17.5795 19.5263 17.5795C19.8445 17.5795 20.138 17.6629 20.407 17.8295C20.6759 17.9943 20.8909 18.2434 21.0518 18.5767C21.2128 18.9081 21.2933 19.3239 21.2933 19.8239C21.2933 20.3106 21.2147 20.7216 21.0575 21.0568C20.9022 21.3902 20.6901 21.643 20.4212 21.8153C20.1541 21.9858 19.8549 22.071 19.5234 22.071C19.2886 22.071 19.0888 22.0322 18.924 21.9545C18.7611 21.8769 18.6276 21.7794 18.5234 21.6619C18.4193 21.5426 18.3397 21.4223 18.2848 21.3011H18.2479V23.6364H17.0376ZM18.2223 19.8182C18.2223 20.0777 18.2583 20.304 18.3303 20.4972C18.4022 20.6903 18.5064 20.8409 18.6428 20.9489C18.7791 21.0549 18.9448 21.108 19.1399 21.108C19.3369 21.108 19.5036 21.054 19.6399 20.946C19.7763 20.8362 19.8795 20.6847 19.9496 20.4915C20.0215 20.2964 20.0575 20.072 20.0575 19.8182C20.0575 19.5663 20.0225 19.3447 19.9524 19.1534C19.8823 18.9621 19.7791 18.8125 19.6428 18.7045C19.5064 18.5966 19.3388 18.5426 19.1399 18.5426C18.9429 18.5426 18.7763 18.5947 18.6399 18.6989C18.5054 18.803 18.4022 18.9508 18.3303 19.142C18.2583 19.3333 18.2223 19.5587 18.2223 19.8182ZM23.3104 16.1818V22H22.1001V16.1818H23.3104ZM26.2514 22.0852C25.8101 22.0852 25.4285 21.9915 25.1065 21.804C24.7865 21.6146 24.5393 21.3513 24.3651 21.0142C24.1908 20.6752 24.1037 20.2822 24.1037 19.8352C24.1037 19.3845 24.1908 18.9905 24.3651 18.6534C24.5393 18.3144 24.7865 18.0511 25.1065 17.8636C25.4285 17.6742 25.8101 17.5795 26.2514 17.5795C26.6927 17.5795 27.0734 17.6742 27.3935 17.8636C27.7154 18.0511 27.9635 18.3144 28.1378 18.6534C28.312 18.9905 28.3991 19.3845 28.3991 19.8352C28.3991 20.2822 28.312 20.6752 28.1378 21.0142C27.9635 21.3513 27.7154 21.6146 27.3935 21.804C27.0734 21.9915 26.6927 22.0852 26.2514 22.0852ZM26.2571 21.1477C26.4579 21.1477 26.6255 21.0909 26.7599 20.9773C26.8944 20.8617 26.9957 20.7045 27.0639 20.5057C27.134 20.3068 27.169 20.0805 27.169 19.8267C27.169 19.5729 27.134 19.3466 27.0639 19.1477C26.9957 18.9489 26.8944 18.7917 26.7599 18.6761C26.6255 18.5606 26.4579 18.5028 26.2571 18.5028C26.0545 18.5028 25.884 18.5606 25.7457 18.6761C25.6094 18.7917 25.5062 18.9489 25.4361 19.1477C25.3679 19.3466 25.3338 19.5729 25.3338 19.8267C25.3338 20.0805 25.3679 20.3068 25.4361 20.5057C25.5062 20.7045 25.6094 20.8617 25.7457 20.9773C25.884 21.0909 26.0545 21.1477 26.2571 21.1477ZM29.1861 22V17.6364H30.3594V18.3977H30.4048C30.4844 18.1269 30.6179 17.9223 30.8054 17.7841C30.9929 17.6439 31.2088 17.5739 31.4531 17.5739C31.5137 17.5739 31.5791 17.5777 31.6491 17.5852C31.7192 17.5928 31.7808 17.6032 31.8338 17.6165V18.6903C31.777 18.6733 31.6984 18.6581 31.598 18.6449C31.4976 18.6316 31.4058 18.625 31.3224 18.625C31.1444 18.625 30.9853 18.6638 30.8452 18.7415C30.7069 18.8172 30.5971 18.9233 30.5156 19.0597C30.4361 19.196 30.3963 19.3532 30.3963 19.5312V22H29.1861ZM33.5788 22.0824C33.3004 22.0824 33.0523 22.0341 32.8345 21.9375C32.6167 21.839 32.4444 21.6941 32.3175 21.5028C32.1925 21.3097 32.13 21.0691 32.13 20.7812C32.13 20.5388 32.1745 20.3352 32.2635 20.1705C32.3525 20.0057 32.4737 19.8731 32.6271 19.7727C32.7805 19.6723 32.9548 19.5966 33.1499 19.5455C33.3468 19.4943 33.5533 19.4583 33.7692 19.4375C34.023 19.411 34.2275 19.3864 34.3828 19.3636C34.5381 19.339 34.6508 19.303 34.7209 19.2557C34.791 19.2083 34.826 19.1383 34.826 19.0455V19.0284C34.826 18.8485 34.7692 18.7093 34.6555 18.6108C34.5438 18.5123 34.3847 18.4631 34.1783 18.4631C33.9605 18.4631 33.7872 18.5114 33.6584 18.608C33.5296 18.7027 33.4444 18.822 33.4027 18.9659L32.2834 18.875C32.3402 18.6098 32.4519 18.3807 32.6186 18.1875C32.7853 17.9924 33.0002 17.8428 33.2635 17.7386C33.5286 17.6326 33.8355 17.5795 34.1839 17.5795C34.4264 17.5795 34.6584 17.608 34.88 17.6648C35.1035 17.7216 35.3014 17.8097 35.4737 17.929C35.648 18.0483 35.7853 18.2017 35.8857 18.3892C35.986 18.5748 36.0362 18.7973 36.0362 19.0568V22H34.8885V21.3949H34.8544C34.7843 21.5312 34.6906 21.6515 34.5732 21.7557C34.4557 21.858 34.3146 21.9384 34.1499 21.9972C33.9851 22.054 33.7947 22.0824 33.5788 22.0824ZM33.9254 21.2472C34.1035 21.2472 34.2607 21.2121 34.397 21.142C34.5334 21.0701 34.6404 20.9735 34.718 20.8523C34.7957 20.7311 34.8345 20.5937 34.8345 20.4403V19.9773C34.7966 20.0019 34.7446 20.0246 34.6783 20.0455C34.6139 20.0644 34.541 20.0824 34.4595 20.0994C34.3781 20.1146 34.2966 20.1288 34.2152 20.142C34.1338 20.1534 34.0599 20.1638 33.9936 20.1733C33.8516 20.1941 33.7275 20.2273 33.6214 20.2727C33.5154 20.3182 33.433 20.3797 33.3743 20.4574C33.3156 20.5331 33.2862 20.6278 33.2862 20.7415C33.2862 20.9062 33.3459 21.0322 33.4652 21.1193C33.5864 21.2045 33.7398 21.2472 33.9254 21.2472ZM40.6058 18.8807L39.4979 18.9489C39.4789 18.8542 39.4382 18.7689 39.3757 18.6932C39.3132 18.6155 39.2308 18.554 39.1286 18.5085C39.0282 18.4612 38.9079 18.4375 38.7678 18.4375C38.5803 18.4375 38.4221 18.4773 38.2933 18.5568C38.1645 18.6345 38.1001 18.7386 38.1001 18.8693C38.1001 18.9735 38.1418 19.0616 38.2251 19.1335C38.3085 19.2055 38.4515 19.2633 38.6541 19.3068L39.4439 19.4659C39.8681 19.553 40.1844 19.6932 40.3928 19.8864C40.6011 20.0795 40.7053 20.3333 40.7053 20.6477C40.7053 20.9337 40.621 21.1847 40.4524 21.4006C40.2857 21.6165 40.0566 21.785 39.7649 21.9062C39.4751 22.0256 39.1409 22.0852 38.7621 22.0852C38.1844 22.0852 37.7242 21.965 37.3814 21.7244C37.0405 21.482 36.8407 21.1525 36.782 20.7358L37.9723 20.6733C38.0083 20.8494 38.0954 20.9839 38.2337 21.0767C38.3719 21.1676 38.549 21.2131 38.7649 21.2131C38.977 21.2131 39.1475 21.1723 39.2763 21.0909C39.407 21.0076 39.4732 20.9006 39.4751 20.7699C39.4732 20.66 39.4268 20.5701 39.3359 20.5C39.245 20.428 39.1049 20.3731 38.9155 20.3352L38.1598 20.1847C37.7337 20.0994 37.4164 19.9517 37.2081 19.7415C37.0017 19.5312 36.8984 19.2633 36.8984 18.9375C36.8984 18.6572 36.9742 18.4157 37.1257 18.2131C37.2791 18.0104 37.4941 17.8542 37.7706 17.7443C38.049 17.6345 38.3748 17.5795 38.7479 17.5795C39.299 17.5795 39.7327 17.696 40.049 17.929C40.3672 18.1619 40.5528 18.4792 40.6058 18.8807ZM41.4673 22V17.6364H42.6776V22H41.4673ZM42.0753 17.0739C41.8954 17.0739 41.741 17.0142 41.6122 16.8949C41.4853 16.7737 41.4219 16.6288 41.4219 16.4602C41.4219 16.2936 41.4853 16.1506 41.6122 16.0312C41.741 15.91 41.8954 15.8494 42.0753 15.8494C42.2552 15.8494 42.4086 15.91 42.5355 16.0312C42.6643 16.1506 42.7287 16.2936 42.7287 16.4602C42.7287 16.6288 42.6643 16.7737 42.5355 16.8949C42.4086 17.0142 42.2552 17.0739 42.0753 17.0739Z" fill="white"/>
<path d="M9.31676 25.9091V31H8.70028V26.5554H8.67045L7.42756 27.3807V26.7543L8.70028 25.9091H9.31676ZM14.9471 28.1811V28.728H12.7198V28.1811H14.9471ZM17.9381 31V30.5526L19.6185 28.7131C19.8157 28.4976 19.9781 28.3104 20.1057 28.1513C20.2333 27.9905 20.3278 27.8397 20.3891 27.6989C20.4521 27.5563 20.4836 27.4072 20.4836 27.2514C20.4836 27.0724 20.4405 26.9175 20.3543 26.7866C20.2698 26.6557 20.1538 26.5546 20.0063 26.4833C19.8588 26.4121 19.6931 26.3764 19.5091 26.3764C19.3136 26.3764 19.1429 26.417 18.9971 26.4982C18.8529 26.5778 18.741 26.6896 18.6615 26.8338C18.5836 26.978 18.5447 27.147 18.5447 27.3409H17.958C17.958 27.0426 18.0268 26.7808 18.1643 26.5554C18.3019 26.33 18.4891 26.1544 18.7261 26.0284C18.9648 25.9025 19.2324 25.8395 19.529 25.8395C19.8273 25.8395 20.0916 25.9025 20.322 26.0284C20.5523 26.1544 20.733 26.3242 20.8639 26.538C20.9948 26.7518 21.0603 26.9896 21.0603 27.2514C21.0603 27.4387 21.0263 27.6218 20.9584 27.8008C20.8921 27.9781 20.7761 28.1761 20.6104 28.3949C20.4463 28.612 20.2184 28.8771 19.9268 29.1903L18.7833 30.4134V30.4531H21.1498V31H17.9381ZM27.0187 27.1818C26.9889 26.9299 26.8679 26.7344 26.6558 26.5952C26.4437 26.456 26.1835 26.3864 25.8753 26.3864C25.6499 26.3864 25.4527 26.4228 25.2836 26.4957C25.1163 26.5687 24.9854 26.6689 24.8909 26.7965C24.7981 26.9241 24.7517 27.0691 24.7517 27.2315C24.7517 27.3674 24.784 27.4843 24.8486 27.582C24.9149 27.6781 24.9994 27.7585 25.1022 27.8232C25.2049 27.8861 25.3126 27.9383 25.4253 27.9798C25.538 28.0195 25.6416 28.0518 25.7361 28.0767L26.2531 28.2159C26.3857 28.2507 26.5332 28.2988 26.6956 28.3601C26.8596 28.4214 27.0162 28.5051 27.1654 28.6112C27.3162 28.7156 27.4405 28.8498 27.5383 29.0138C27.636 29.1779 27.6849 29.3793 27.6849 29.6179C27.6849 29.893 27.6128 30.1416 27.4687 30.3636C27.3261 30.5857 27.1173 30.7622 26.8422 30.8931C26.5688 31.024 26.2365 31.0895 25.8454 31.0895C25.4809 31.0895 25.1652 31.0307 24.8983 30.913C24.6332 30.7953 24.4244 30.6313 24.2719 30.4208C24.1211 30.2103 24.0358 29.9659 24.0159 29.6875H24.6523C24.6688 29.8797 24.7335 30.0388 24.8461 30.1648C24.9605 30.2891 25.1047 30.3819 25.2787 30.4432C25.4543 30.5028 25.6433 30.5327 25.8454 30.5327C26.0808 30.5327 26.2921 30.4946 26.4793 30.4183C26.6666 30.3404 26.8149 30.2327 26.9243 30.0952C27.0336 29.956 27.0883 29.7936 27.0883 29.608C27.0883 29.4389 27.0411 29.3014 26.9466 29.1953C26.8522 29.0893 26.7279 29.0031 26.5738 28.9368C26.4197 28.8705 26.2531 28.8125 26.0741 28.7628L25.4477 28.5838C25.05 28.4695 24.7351 28.3062 24.5031 28.0941C24.2711 27.882 24.1551 27.6044 24.1551 27.2614C24.1551 26.9763 24.2322 26.7277 24.3863 26.5156C24.5421 26.3018 24.7509 26.1361 25.0127 26.0185C25.2762 25.8991 25.5703 25.8395 25.8952 25.8395C26.2233 25.8395 26.5149 25.8983 26.7702 26.016C27.0254 26.132 27.2275 26.2911 27.3767 26.4933C27.5275 26.6954 27.607 26.925 27.6153 27.1818H27.0187ZM30.2695 31H28.6985V25.9091H30.3391C30.833 25.9091 31.2556 26.011 31.6069 26.2148C31.9582 26.417 32.2275 26.7079 32.4148 27.0874C32.602 27.4652 32.6957 27.9176 32.6957 28.4446C32.6957 28.9749 32.6012 29.4315 32.4123 29.8143C32.2234 30.1954 31.9483 30.4888 31.587 30.6942C31.2257 30.8981 30.7866 31 30.2695 31ZM29.315 30.4531H30.2298C30.6507 30.4531 30.9995 30.3719 31.2763 30.2095C31.553 30.0471 31.7594 29.8159 31.8952 29.516C32.0311 29.216 32.0991 28.8589 32.0991 28.4446C32.0991 28.0336 32.032 27.6798 31.8977 27.3832C31.7635 27.0849 31.563 26.8562 31.2962 26.6971C31.0294 26.5363 30.6971 26.456 30.2994 26.456H29.315V30.4531ZM35.8278 28.4545C35.8278 27.8281 35.909 27.2522 36.0714 26.7269C36.2354 26.1999 36.4691 25.7152 36.7724 25.2727H37.2894C37.1701 25.4368 37.0582 25.639 36.9538 25.8793C36.8511 26.1179 36.7608 26.3806 36.6829 26.6673C36.605 26.9523 36.5437 27.2473 36.4989 27.5522C36.4558 27.8571 36.4343 28.1579 36.4343 28.4545C36.4343 28.849 36.4724 29.2492 36.5487 29.6552C36.6249 30.0612 36.7276 30.4382 36.8569 30.7862C36.9862 31.1342 37.1303 31.4176 37.2894 31.6364H36.7724C36.4691 31.1939 36.2354 30.71 36.0714 30.1847C35.909 29.6577 35.8278 29.081 35.8278 28.4545ZM37.827 31L37.9065 30.5526L39.8852 28.7131C40.1172 28.4976 40.3103 28.3095 40.4644 28.1488C40.6202 27.988 40.7412 27.8372 40.8273 27.6964C40.9152 27.5555 40.9723 27.4072 40.9988 27.2514C41.0287 27.0724 41.0129 26.9175 40.9516 26.7866C40.8903 26.6557 40.7934 26.5546 40.6608 26.4833C40.5282 26.4121 40.3691 26.3764 40.1835 26.3764C39.988 26.3764 39.8098 26.417 39.6491 26.4982C39.4883 26.5778 39.3549 26.6905 39.2488 26.8363C39.1428 26.9805 39.0732 27.1487 39.04 27.3409H38.4534C38.5031 27.0426 38.6166 26.7808 38.7939 26.5554C38.9729 26.33 39.1925 26.1544 39.4527 26.0284C39.7145 25.9025 39.9946 25.8395 40.2929 25.8395C40.5912 25.8395 40.8439 25.9025 41.051 26.0284C41.2582 26.1544 41.4082 26.3242 41.501 26.538C41.5938 26.7518 41.6186 26.9896 41.5756 27.2514C41.5424 27.4403 41.4769 27.6235 41.3792 27.8008C41.2814 27.9781 41.1314 28.1761 40.9292 28.3949C40.7287 28.612 40.4569 28.8771 40.1139 29.1903L38.7716 30.4134L38.7616 30.4531H41.1281L41.0386 31H37.827ZM43.7158 31.0696C43.3413 31.0696 43.0397 30.9677 42.811 30.7638C42.5823 30.5584 42.4315 30.2609 42.3586 29.8714C42.2857 29.4804 42.2939 29.008 42.3834 28.4545C42.4729 27.9044 42.6196 27.4345 42.8234 27.0451C43.0273 26.654 43.2783 26.3557 43.5766 26.1502C43.8749 25.9431 44.2097 25.8395 44.5809 25.8395C44.9521 25.8395 45.2529 25.9431 45.4832 26.1502C45.7152 26.3574 45.8693 26.6557 45.9456 27.0451C46.0235 27.4345 46.016 27.9044 45.9232 28.4545C45.8304 29.008 45.6821 29.4795 45.4782 29.869C45.2744 30.2584 45.0233 30.5559 44.7251 30.7614C44.4268 30.9669 44.0903 31.0696 43.7158 31.0696ZM43.8053 30.5227C44.1782 30.5227 44.4972 30.3437 44.7623 29.9858C45.0291 29.6262 45.2172 29.1158 45.3266 28.4545C45.3995 28.0137 45.4144 27.6384 45.3714 27.3285C45.3283 27.0186 45.2322 26.7824 45.083 26.62C44.9339 26.4576 44.7367 26.3764 44.4914 26.3764C44.1235 26.3764 43.807 26.5579 43.5418 26.9208C43.2767 27.2821 43.0894 27.7933 42.98 28.4545C42.9071 28.8954 42.8914 29.2699 42.9328 29.5781C42.9742 29.8864 43.0687 30.1209 43.2162 30.2816C43.3637 30.4424 43.56 30.5227 43.8053 30.5227ZM48.1803 31.0696C47.8489 31.0696 47.5613 31.0141 47.3177 30.9031C47.0758 30.7904 46.8952 30.6338 46.7758 30.4332C46.6565 30.2311 46.6143 29.9957 46.6491 29.7273H47.2655C47.2506 29.8897 47.2788 30.0305 47.3501 30.1499C47.423 30.2692 47.5307 30.3612 47.6732 30.4258C47.8174 30.4904 47.9897 30.5227 48.1903 30.5227C48.404 30.5227 48.6046 30.4854 48.7918 30.4109C48.9807 30.3363 49.139 30.2286 49.2666 30.0877C49.3942 29.9452 49.4729 29.7753 49.5028 29.5781C49.5293 29.4008 49.5094 29.2434 49.4431 29.1058C49.3768 28.9683 49.2625 28.8606 49.1001 28.7827C48.9393 28.7031 48.7288 28.6634 48.4687 28.6634H48.051L48.1405 28.1165H48.5283C48.7305 28.1165 48.9161 28.0784 49.0851 28.0021C49.2542 27.9259 49.395 27.819 49.5077 27.6815C49.6204 27.5423 49.6917 27.379 49.7215 27.1918C49.7497 27.0277 49.7381 26.8852 49.6867 26.7642C49.637 26.6416 49.5508 26.5463 49.4282 26.4783C49.3072 26.4104 49.1531 26.3764 48.9658 26.3764C48.7868 26.3764 48.6112 26.4087 48.4388 26.4734C48.2681 26.5363 48.1223 26.6283 48.0013 26.7493C47.8804 26.8686 47.8041 27.0128 47.7726 27.1818H47.176C47.2274 26.9167 47.3426 26.6838 47.5216 26.4833C47.7006 26.2811 47.9185 26.1237 48.1753 26.011C48.4339 25.8967 48.7073 25.8395 48.9956 25.8395C49.3155 25.8395 49.579 25.9058 49.7861 26.0384C49.9949 26.1693 50.1441 26.3416 50.2336 26.5554C50.3231 26.7675 50.3479 26.9962 50.3081 27.2415C50.2634 27.5215 50.1482 27.7585 49.9626 27.9524C49.777 28.1463 49.5508 28.2839 49.284 28.3651V28.3949C49.5972 28.4496 49.8242 28.5938 49.9651 28.8274C50.1076 29.0594 50.1524 29.3362 50.0993 29.6577C50.0529 29.946 49.9411 30.1963 49.7638 30.4084C49.5864 30.6188 49.3619 30.7821 49.0901 30.8981C48.8183 31.0124 48.5151 31.0696 48.1803 31.0696ZM52.4782 31.0696C52.1866 31.0696 51.933 31.0116 51.7176 30.8956C51.5022 30.7796 51.3406 30.6205 51.2329 30.4183C51.1251 30.2161 51.0862 29.9858 51.116 29.7273H51.7126C51.6977 29.956 51.7715 30.1457 51.9339 30.2965C52.0979 30.4473 52.3092 30.5227 52.5677 30.5227C52.7765 30.5227 52.9704 30.4738 53.1494 30.3761C53.33 30.2783 53.4809 30.1441 53.6018 29.9734C53.7245 29.8027 53.804 29.608 53.8405 29.3892C53.8769 29.1671 53.8612 28.9683 53.7932 28.7926C53.7253 28.617 53.6151 28.4786 53.4626 28.3775C53.3102 28.2764 53.1246 28.2259 52.9058 28.2259C52.7517 28.2259 52.5885 28.2507 52.4161 28.3004C52.2454 28.3485 52.1004 28.4098 51.9811 28.4844L51.4143 28.4148L52.1402 25.9091H54.7851L54.6956 26.456H52.5677L52.1402 27.9574H52.17C52.2893 27.8729 52.431 27.8041 52.5951 27.7511C52.7608 27.6964 52.9307 27.669 53.1047 27.669C53.4162 27.669 53.6814 27.7436 53.9001 27.8928C54.1205 28.0402 54.2788 28.2433 54.3749 28.5018C54.4727 28.7586 54.4934 29.0511 54.4371 29.3793C54.384 29.7041 54.2639 29.9941 54.0766 30.2493C53.891 30.5028 53.659 30.7034 53.3806 30.8509C53.1038 30.9967 52.8031 31.0696 52.4782 31.0696ZM56.737 28.8523C56.737 29.4787 56.655 30.0554 56.4909 30.5824C56.3285 31.1077 56.0957 31.5916 55.7924 32.0341H55.2754C55.3947 31.87 55.5057 31.6679 55.6085 31.4276C55.7129 31.1889 55.804 30.9271 55.8819 30.642C55.9598 30.3554 56.0203 30.0595 56.0634 29.7546C56.1081 29.448 56.1305 29.1473 56.1305 28.8523C56.1305 28.4579 56.0924 28.0576 56.0162 27.6516C55.9399 27.2456 55.8372 26.8686 55.7079 26.5206C55.5787 26.1726 55.4345 25.8892 55.2754 25.6705H55.7924C56.0957 26.1129 56.3285 26.5977 56.4909 27.1246C56.655 27.65 56.737 28.2259 56.737 28.8523Z" fill="white"/>
</svg>
