<svg width="100" height="45" viewBox="0 0 100 45" fill="none" xmlns="http://www.w3.org/2000/svg">
<rect width="100" height="45" rx="5" fill="#A4D2E9"/>
<path d="M7.50568 22V16.1818H11.358V17.196H8.7358V18.5824H11.1023V19.5966H8.7358V22H7.50568ZM13.8139 22.0852C13.3726 22.0852 12.991 21.9915 12.669 21.804C12.349 21.6146 12.1018 21.3513 11.9276 21.0142C11.7533 20.6752 11.6662 20.2822 11.6662 19.8352C11.6662 19.3845 11.7533 18.9905 11.9276 18.6534C12.1018 18.3144 12.349 18.0511 12.669 17.8636C12.991 17.6742 13.3726 17.5795 13.8139 17.5795C14.2552 17.5795 14.6359 17.6742 14.956 17.8636C15.2779 18.0511 15.526 18.3144 15.7003 18.6534C15.8745 18.9905 15.9616 19.3845 15.9616 19.8352C15.9616 20.2822 15.8745 20.6752 15.7003 21.0142C15.526 21.3513 15.2779 21.6146 14.956 21.804C14.6359 21.9915 14.2552 22.0852 13.8139 22.0852ZM13.8196 21.1477C14.0204 21.1477 14.188 21.0909 14.3224 20.9773C14.4569 20.8617 14.5582 20.7045 14.6264 20.5057C14.6965 20.3068 14.7315 20.0805 14.7315 19.8267C14.7315 19.5729 14.6965 19.3466 14.6264 19.1477C14.5582 18.9489 14.4569 18.7917 14.3224 18.6761C14.188 18.5606 14.0204 18.5028 13.8196 18.5028C13.617 18.5028 13.4465 18.5606 13.3082 18.6761C13.1719 18.7917 13.0687 18.9489 12.9986 19.1477C12.9304 19.3466 12.8963 19.5729 12.8963 19.8267C12.8963 20.0805 12.9304 20.3068 12.9986 20.5057C13.0687 20.7045 13.1719 20.8617 13.3082 20.9773C13.4465 21.0909 13.617 21.1477 13.8196 21.1477ZM17.9588 19.4773V22H16.7486V17.6364H17.902V18.4062H17.9531C18.0497 18.1525 18.2116 17.9517 18.4389 17.804C18.6662 17.6544 18.9418 17.5795 19.2656 17.5795C19.5687 17.5795 19.8329 17.6458 20.0582 17.7784C20.2836 17.911 20.4588 18.1004 20.5838 18.3466C20.7088 18.5909 20.7713 18.8826 20.7713 19.2216V22H19.5611V19.4375C19.563 19.1705 19.4948 18.9621 19.3565 18.8125C19.2183 18.661 19.0279 18.5852 18.7855 18.5852C18.6226 18.5852 18.4787 18.6203 18.3537 18.6903C18.2306 18.7604 18.134 18.8627 18.0639 18.9972C17.9957 19.1297 17.9607 19.2898 17.9588 19.4773ZM23.3331 22.071C23.0017 22.071 22.7015 21.9858 22.4325 21.8153C22.1655 21.643 21.9534 21.3902 21.7962 21.0568C21.6409 20.7216 21.5632 20.3106 21.5632 19.8239C21.5632 19.3239 21.6437 18.9081 21.8047 18.5767C21.9657 18.2434 22.1797 17.9943 22.4467 17.8295C22.7157 17.6629 23.0102 17.5795 23.3303 17.5795C23.5746 17.5795 23.7782 17.6212 23.9411 17.7045C24.1058 17.786 24.2384 17.8883 24.3388 18.0114C24.4411 18.1326 24.5187 18.2519 24.5717 18.3693H24.6087V16.1818H25.8161V22H24.6229V21.3011H24.5717C24.5149 21.4223 24.4344 21.5426 24.3303 21.6619C24.228 21.7794 24.0945 21.8769 23.9297 21.9545C23.7668 22.0322 23.5679 22.071 23.3331 22.071ZM23.7166 21.108C23.9117 21.108 24.0765 21.0549 24.2109 20.9489C24.3473 20.8409 24.4515 20.6903 24.5234 20.4972C24.5973 20.304 24.6342 20.0777 24.6342 19.8182C24.6342 19.5587 24.5982 19.3333 24.5263 19.142C24.4543 18.9508 24.3501 18.803 24.2138 18.6989C24.0774 18.5947 23.9117 18.5426 23.7166 18.5426C23.5178 18.5426 23.3501 18.5966 23.2138 18.7045C23.0774 18.8125 22.9742 18.9621 22.9041 19.1534C22.834 19.3447 22.799 19.5663 22.799 19.8182C22.799 20.072 22.834 20.2964 22.9041 20.4915C22.9761 20.6847 23.0793 20.8362 23.2138 20.946C23.3501 21.054 23.5178 21.108 23.7166 21.108ZM28.0554 22.0824C27.777 22.0824 27.5289 22.0341 27.3111 21.9375C27.0933 21.839 26.9209 21.6941 26.794 21.5028C26.669 21.3097 26.6065 21.0691 26.6065 20.7812C26.6065 20.5388 26.651 20.3352 26.7401 20.1705C26.8291 20.0057 26.9503 19.8731 27.1037 19.7727C27.2571 19.6723 27.4313 19.5966 27.6264 19.5455C27.8234 19.4943 28.0298 19.4583 28.2457 19.4375C28.4995 19.411 28.7041 19.3864 28.8594 19.3636C29.0147 19.339 29.1274 19.303 29.1974 19.2557C29.2675 19.2083 29.3026 19.1383 29.3026 19.0455V19.0284C29.3026 18.8485 29.2457 18.7093 29.1321 18.6108C29.0204 18.5123 28.8613 18.4631 28.6548 18.4631C28.437 18.4631 28.2637 18.5114 28.1349 18.608C28.0062 18.7027 27.9209 18.822 27.8793 18.9659L26.7599 18.875C26.8168 18.6098 26.9285 18.3807 27.0952 18.1875C27.2618 17.9924 27.4768 17.8428 27.7401 17.7386C28.0052 17.6326 28.312 17.5795 28.6605 17.5795C28.9029 17.5795 29.1349 17.608 29.3565 17.6648C29.58 17.7216 29.7779 17.8097 29.9503 17.929C30.1245 18.0483 30.2618 18.2017 30.3622 18.3892C30.4626 18.5748 30.5128 18.7973 30.5128 19.0568V22H29.3651V21.3949H29.331C29.2609 21.5312 29.1671 21.6515 29.0497 21.7557C28.9323 21.858 28.7912 21.9384 28.6264 21.9972C28.4616 22.054 28.2713 22.0824 28.0554 22.0824ZM28.402 21.2472C28.58 21.2472 28.7372 21.2121 28.8736 21.142C29.0099 21.0701 29.117 20.9735 29.1946 20.8523C29.2723 20.7311 29.3111 20.5937 29.3111 20.4403V19.9773C29.2732 20.0019 29.2211 20.0246 29.1548 20.0455C29.0904 20.0644 29.0175 20.0824 28.9361 20.0994C28.8546 20.1146 28.7732 20.1288 28.6918 20.142C28.6103 20.1534 28.5365 20.1638 28.4702 20.1733C28.3281 20.1941 28.2041 20.2273 28.098 20.2727C27.992 20.3182 27.9096 20.3797 27.8509 20.4574C27.7921 20.5331 27.7628 20.6278 27.7628 20.7415C27.7628 20.9062 27.8224 21.0322 27.9418 21.1193C28.063 21.2045 28.2164 21.2472 28.402 21.2472ZM35.0824 18.8807L33.9744 18.9489C33.9555 18.8542 33.9148 18.7689 33.8523 18.6932C33.7898 18.6155 33.7074 18.554 33.6051 18.5085C33.5047 18.4612 33.3845 18.4375 33.2443 18.4375C33.0568 18.4375 32.8987 18.4773 32.7699 18.5568C32.6411 18.6345 32.5767 18.7386 32.5767 18.8693C32.5767 18.9735 32.6184 19.0616 32.7017 19.1335C32.785 19.2055 32.928 19.2633 33.1307 19.3068L33.9205 19.4659C34.3447 19.553 34.661 19.6932 34.8693 19.8864C35.0777 20.0795 35.1818 20.3333 35.1818 20.6477C35.1818 20.9337 35.0975 21.1847 34.929 21.4006C34.7623 21.6165 34.5331 21.785 34.2415 21.9062C33.9517 22.0256 33.6174 22.0852 33.2386 22.0852C32.661 22.0852 32.2008 21.965 31.858 21.7244C31.517 21.482 31.3172 21.1525 31.2585 20.7358L32.4489 20.6733C32.4848 20.8494 32.572 20.9839 32.7102 21.0767C32.8485 21.1676 33.0256 21.2131 33.2415 21.2131C33.4536 21.2131 33.6241 21.1723 33.7528 21.0909C33.8835 21.0076 33.9498 20.9006 33.9517 20.7699C33.9498 20.66 33.9034 20.5701 33.8125 20.5C33.7216 20.428 33.5814 20.3731 33.392 20.3352L32.6364 20.1847C32.2102 20.0994 31.893 19.9517 31.6847 19.7415C31.4782 19.5312 31.375 19.2633 31.375 18.9375C31.375 18.6572 31.4508 18.4157 31.6023 18.2131C31.7557 18.0104 31.9706 17.8542 32.2472 17.7443C32.5256 17.6345 32.8513 17.5795 33.2244 17.5795C33.7756 17.5795 34.2093 17.696 34.5256 17.929C34.8438 18.1619 35.0294 18.4792 35.0824 18.8807ZM35.9439 22V17.6364H37.1541V22H35.9439ZM36.5518 17.0739C36.3719 17.0739 36.2176 17.0142 36.0888 16.8949C35.9619 16.7737 35.8984 16.6288 35.8984 16.4602C35.8984 16.2936 35.9619 16.1506 36.0888 16.0312C36.2176 15.91 36.3719 15.8494 36.5518 15.8494C36.7318 15.8494 36.8852 15.91 37.0121 16.0312C37.1409 16.1506 37.2053 16.2936 37.2053 16.4602C37.2053 16.6288 37.1409 16.7737 37.0121 16.8949C36.8852 17.0142 36.7318 17.0739 36.5518 17.0739Z" fill="white"/>
<path d="M9.24716 31.0696C8.91903 31.0696 8.62654 31.0133 8.36967 30.9006C8.11447 30.7879 7.91146 30.6313 7.76065 30.4308C7.61151 30.2286 7.5303 29.9941 7.51705 29.7273H8.14347C8.15672 29.8913 8.21307 30.033 8.3125 30.1523C8.41193 30.27 8.54202 30.3612 8.70277 30.4258C8.86352 30.4904 9.04167 30.5227 9.23722 30.5227C9.45597 30.5227 9.64986 30.4846 9.81889 30.4084C9.98793 30.3321 10.1205 30.2261 10.2166 30.0902C10.3127 29.9543 10.3608 29.7969 10.3608 29.6179C10.3608 29.4306 10.3144 29.2657 10.2216 29.1232C10.1288 28.979 9.9929 28.8664 9.81392 28.7852C9.63494 28.704 9.41619 28.6634 9.15767 28.6634H8.75V28.1165H9.15767C9.35985 28.1165 9.53717 28.08 9.68963 28.0071C9.84375 27.9342 9.9639 27.8314 10.0501 27.6989C10.1379 27.5663 10.1818 27.4105 10.1818 27.2315C10.1818 27.0592 10.1437 26.9092 10.0675 26.7816C9.99124 26.654 9.88352 26.5546 9.74432 26.4833C9.60677 26.4121 9.44437 26.3764 9.2571 26.3764C9.08144 26.3764 8.91572 26.4087 8.75994 26.4734C8.60582 26.5363 8.47988 26.6283 8.3821 26.7493C8.28433 26.8686 8.2313 27.0128 8.22301 27.1818H7.62642C7.63636 26.915 7.71674 26.6813 7.86754 26.4808C8.01835 26.2786 8.21555 26.1212 8.45916 26.0085C8.70443 25.8958 8.97372 25.8395 9.26705 25.8395C9.58191 25.8395 9.85204 25.9033 10.0774 26.0309C10.3028 26.1568 10.476 26.3234 10.5969 26.5305C10.7179 26.7377 10.7784 26.9614 10.7784 27.2017C10.7784 27.4884 10.703 27.7328 10.5522 27.935C10.4031 28.1372 10.2 28.2772 9.94318 28.3551V28.3949C10.2647 28.4479 10.5157 28.5846 10.6964 28.805C10.877 29.0238 10.9673 29.2947 10.9673 29.6179C10.9673 29.8946 10.8919 30.1432 10.7411 30.3636C10.592 30.5824 10.3881 30.7547 10.1296 30.8807C9.87109 31.0066 9.57694 31.0696 9.24716 31.0696ZM16.1502 28.1811V28.728H13.9229V28.1811H16.1502ZM20.8316 31.0696C20.6228 31.0663 20.414 31.0265 20.2052 30.9503C19.9964 30.8741 19.8058 30.7456 19.6334 30.565C19.4611 30.3827 19.3227 30.1366 19.2183 29.8267C19.1139 29.5152 19.0617 29.1241 19.0617 28.6534C19.0617 28.2027 19.104 27.8033 19.1885 27.4553C19.273 27.1056 19.3956 26.8114 19.5564 26.5728C19.7171 26.3325 19.911 26.1502 20.1381 26.0259C20.3667 25.9016 20.6244 25.8395 20.9111 25.8395C21.1962 25.8395 21.4497 25.8967 21.6718 26.011C21.8955 26.1237 22.0778 26.2811 22.2187 26.4833C22.3595 26.6855 22.4507 26.9183 22.4921 27.1818H21.8856C21.8292 26.9531 21.7198 26.7634 21.5574 26.6126C21.395 26.4618 21.1796 26.3864 20.9111 26.3864C20.5167 26.3864 20.206 26.5579 19.979 26.9009C19.7536 27.244 19.6401 27.7254 19.6384 28.3452H19.6782C19.771 28.2043 19.8812 28.0842 20.0088 27.9847C20.1381 27.8836 20.2806 27.8058 20.4363 27.7511C20.5921 27.6964 20.757 27.669 20.931 27.669C21.2227 27.669 21.4895 27.742 21.7314 27.8878C21.9734 28.032 22.1673 28.2317 22.3131 28.4869C22.459 28.7404 22.5319 29.0312 22.5319 29.3594C22.5319 29.6742 22.4614 29.9626 22.3206 30.2244C22.1797 30.4846 21.9817 30.6918 21.7265 30.8459C21.4729 30.9983 21.1746 31.0729 20.8316 31.0696ZM20.8316 30.5227C21.0404 30.5227 21.2277 30.4705 21.3934 30.3661C21.5608 30.2617 21.6925 30.1217 21.7886 29.946C21.8864 29.7704 21.9353 29.5748 21.9353 29.3594C21.9353 29.1489 21.8881 28.9575 21.7936 28.7852C21.7008 28.6112 21.5724 28.4728 21.4083 28.37C21.2459 28.2673 21.0603 28.2159 20.8515 28.2159C20.694 28.2159 20.5474 28.2474 20.4115 28.3104C20.2756 28.3717 20.1563 28.4562 20.0535 28.5639C19.9524 28.6716 19.8729 28.7951 19.8149 28.9343C19.7569 29.0719 19.7279 29.2169 19.7279 29.3693C19.7279 29.5715 19.7751 29.7604 19.8696 29.9361C19.9657 30.1117 20.0966 30.2534 20.2623 30.3612C20.4297 30.4689 20.6195 30.5227 20.8316 30.5227ZM28.3517 27.1818C28.3219 26.9299 28.2009 26.7344 27.9888 26.5952C27.7767 26.456 27.5165 26.3864 27.2083 26.3864C26.9829 26.3864 26.7857 26.4228 26.6167 26.4957C26.4493 26.5687 26.3184 26.6689 26.2239 26.7965C26.1311 26.9241 26.0847 27.0691 26.0847 27.2315C26.0847 27.3674 26.117 27.4843 26.1816 27.582C26.2479 27.6781 26.3324 27.7585 26.4352 27.8232C26.5379 27.8861 26.6457 27.9383 26.7583 27.9798C26.871 28.0195 26.9746 28.0518 27.0691 28.0767L27.5861 28.2159C27.7187 28.2507 27.8662 28.2988 28.0286 28.3601C28.1926 28.4214 28.3493 28.5051 28.4984 28.6112C28.6492 28.7156 28.7735 28.8498 28.8713 29.0138C28.969 29.1779 29.0179 29.3793 29.0179 29.6179C29.0179 29.893 28.9458 30.1416 28.8017 30.3636C28.6592 30.5857 28.4503 30.7622 28.1752 30.8931C27.9018 31.024 27.5695 31.0895 27.1784 31.0895C26.8139 31.0895 26.4982 31.0307 26.2314 30.913C25.9662 30.7953 25.7574 30.6313 25.6049 30.4208C25.4541 30.2103 25.3688 29.9659 25.3489 29.6875H25.9853C26.0018 29.8797 26.0665 30.0388 26.1792 30.1648C26.2935 30.2891 26.4377 30.3819 26.6117 30.4432C26.7873 30.5028 26.9763 30.5327 27.1784 30.5327C27.4138 30.5327 27.6251 30.4946 27.8123 30.4183C27.9996 30.3404 28.1479 30.2327 28.2573 30.0952C28.3667 29.956 28.4213 29.7936 28.4213 29.608C28.4213 29.4389 28.3741 29.3014 28.2797 29.1953C28.1852 29.0893 28.0609 29.0031 27.9068 28.9368C27.7527 28.8705 27.5861 28.8125 27.4071 28.7628L26.7807 28.5838C26.383 28.4695 26.0681 28.3062 25.8361 28.0941C25.6041 27.882 25.4881 27.6044 25.4881 27.2614C25.4881 26.9763 25.5652 26.7277 25.7193 26.5156C25.8751 26.3018 26.0839 26.1361 26.3457 26.0185C26.6092 25.8991 26.9033 25.8395 27.2282 25.8395C27.5563 25.8395 27.848 25.8983 28.1032 26.016C28.3584 26.132 28.5605 26.2911 28.7097 26.4933C28.8605 26.6954 28.94 26.925 28.9483 27.1818H28.3517ZM31.6025 31H30.0315V25.9091H31.6721C32.166 25.9091 32.5886 26.011 32.9399 26.2148C33.2912 26.417 33.5605 26.7079 33.7478 27.0874C33.935 27.4652 34.0287 27.9176 34.0287 28.4446C34.0287 28.9749 33.9342 29.4315 33.7453 29.8143C33.5564 30.1954 33.2813 30.4888 32.92 30.6942C32.5587 30.8981 32.1196 31 31.6025 31ZM30.648 30.4531H31.5628C31.9837 30.4531 32.3325 30.3719 32.6093 30.2095C32.886 30.0471 33.0924 29.8159 33.2282 29.516C33.3641 29.216 33.4321 28.8589 33.4321 28.4446C33.4321 28.0336 33.365 27.6798 33.2307 27.3832C33.0965 27.0849 32.896 26.8562 32.6292 26.6971C32.3624 26.5363 32.0301 26.456 31.6324 26.456H30.648V30.4531ZM37.1608 28.4545C37.1608 27.8281 37.242 27.2522 37.4044 26.7269C37.5684 26.1999 37.8021 25.7152 38.1054 25.2727H38.6224C38.5031 25.4368 38.3912 25.639 38.2868 25.8793C38.1841 26.1179 38.0938 26.3806 38.0159 26.6673C37.938 26.9523 37.8767 27.2473 37.8319 27.5522C37.7889 27.8571 37.7673 28.1579 37.7673 28.4545C37.7673 28.849 37.8054 29.2492 37.8817 29.6552C37.9579 30.0612 38.0606 30.4382 38.1899 30.7862C38.3192 31.1342 38.4633 31.4176 38.6224 31.6364H38.1054C37.8021 31.1939 37.5684 30.71 37.4044 30.1847C37.242 29.6577 37.1608 29.081 37.1608 28.4545ZM39.4782 31V30.5526L41.1586 28.7131C41.3558 28.4976 41.5182 28.3104 41.6458 28.1513C41.7734 27.9905 41.8678 27.8397 41.9292 27.6989C41.9921 27.5563 42.0236 27.4072 42.0236 27.2514C42.0236 27.0724 41.9805 26.9175 41.8944 26.7866C41.8098 26.6557 41.6938 26.5546 41.5463 26.4833C41.3989 26.4121 41.2331 26.3764 41.0492 26.3764C40.8536 26.3764 40.6829 26.417 40.5371 26.4982C40.3929 26.5778 40.2811 26.6896 40.2015 26.8338C40.1236 26.978 40.0847 27.147 40.0847 27.3409H39.498C39.498 27.0426 39.5668 26.7808 39.7044 26.5554C39.8419 26.33 40.0292 26.1544 40.2662 26.0284C40.5048 25.9025 40.7724 25.8395 41.0691 25.8395C41.3674 25.8395 41.6317 25.9025 41.862 26.0284C42.0924 26.1544 42.273 26.3242 42.4039 26.538C42.5349 26.7518 42.6003 26.9896 42.6003 27.2514C42.6003 27.4387 42.5663 27.6218 42.4984 27.8008C42.4321 27.9781 42.3161 28.1761 42.1504 28.3949C41.9863 28.612 41.7585 28.8771 41.4668 29.1903L40.3233 30.4134V30.4531H42.6898V31H39.4782ZM45.377 31.0696C45.0024 31.0696 44.6834 30.9677 44.4199 30.7638C44.1564 30.5584 43.9551 30.2609 43.8159 29.8714C43.6767 29.4804 43.6071 29.008 43.6071 28.4545C43.6071 27.9044 43.6767 27.4345 43.8159 27.0451C43.9567 26.654 44.1589 26.3557 44.4224 26.1502C44.6876 25.9431 45.0057 25.8395 45.377 25.8395C45.7482 25.8395 46.0655 25.9431 46.329 26.1502C46.5942 26.3557 46.7963 26.654 46.9355 27.0451C47.0764 27.4345 47.1468 27.9044 47.1468 28.4545C47.1468 29.008 47.0772 29.4804 46.938 29.8714C46.7988 30.2609 46.5975 30.5584 46.334 30.7638C46.0705 30.9677 45.7515 31.0696 45.377 31.0696ZM45.377 30.5227C45.7482 30.5227 46.0365 30.3437 46.242 29.9858C46.4475 29.6278 46.5502 29.1174 46.5502 28.4545C46.5502 28.0137 46.503 27.6384 46.4086 27.3285C46.3158 27.0186 46.1815 26.7824 46.0059 26.62C45.8319 26.4576 45.6222 26.3764 45.377 26.3764C45.0091 26.3764 44.7215 26.5579 44.5144 26.9208C44.3072 27.2821 44.2037 27.7933 44.2037 28.4545C44.2037 28.8954 44.2501 29.2699 44.3429 29.5781C44.4357 29.8864 44.5691 30.1209 44.7431 30.2816C44.9187 30.4424 45.13 30.5227 45.377 30.5227ZM49.8116 31.0696C49.4835 31.0696 49.191 31.0133 48.9341 30.9006C48.6789 30.7879 48.4759 30.6313 48.3251 30.4308C48.176 30.2286 48.0948 29.9941 48.0815 29.7273H48.7079C48.7212 29.8913 48.7775 30.033 48.877 30.1523C48.9764 30.27 49.1065 30.3612 49.2672 30.4258C49.428 30.4904 49.6061 30.5227 49.8017 30.5227C50.0204 30.5227 50.2143 30.4846 50.3833 30.4084C50.5524 30.3321 50.685 30.2261 50.7811 30.0902C50.8772 29.9543 50.9252 29.7969 50.9252 29.6179C50.9252 29.4306 50.8788 29.2657 50.786 29.1232C50.6932 28.979 50.5574 28.8664 50.3784 28.7852C50.1994 28.704 49.9806 28.6634 49.7221 28.6634H49.3145V28.1165H49.7221C49.9243 28.1165 50.1016 28.08 50.2541 28.0071C50.4082 27.9342 50.5283 27.8314 50.6145 27.6989C50.7024 27.5663 50.7463 27.4105 50.7463 27.2315C50.7463 27.0592 50.7082 26.9092 50.6319 26.7816C50.5557 26.654 50.448 26.5546 50.3088 26.4833C50.1712 26.4121 50.0088 26.3764 49.8216 26.3764C49.6459 26.3764 49.4802 26.4087 49.3244 26.4734C49.1703 26.5363 49.0443 26.6283 48.9466 26.7493C48.8488 26.8686 48.7958 27.0128 48.7875 27.1818H48.1909C48.2008 26.915 48.2812 26.6813 48.432 26.4808C48.5828 26.2786 48.78 26.1212 49.0236 26.0085C49.2689 25.8958 49.5382 25.8395 49.8315 25.8395C50.1464 25.8395 50.4165 25.9033 50.6419 26.0309C50.8672 26.1568 51.0404 26.3234 51.1614 26.5305C51.2824 26.7377 51.3429 26.9614 51.3429 27.2017C51.3429 27.4884 51.2675 27.7328 51.1167 27.935C50.9675 28.1372 50.7645 28.2772 50.5076 28.3551V28.3949C50.8291 28.4479 51.0802 28.5846 51.2608 28.805C51.4415 29.0238 51.5318 29.2947 51.5318 29.6179C51.5318 29.8946 51.4564 30.1432 51.3056 30.3636C51.1564 30.5824 50.9526 30.7547 50.6941 30.8807C50.4355 31.0066 50.1414 31.0696 49.8116 31.0696ZM54.1394 31.0696C53.8477 31.0696 53.585 31.0116 53.3514 30.8956C53.1177 30.7796 52.9305 30.6205 52.7896 30.4183C52.6487 30.2161 52.5717 29.9858 52.5584 29.7273H53.155C53.1782 29.9576 53.2826 30.1482 53.4682 30.299C53.6555 30.4482 53.8792 30.5227 54.1394 30.5227C54.3482 30.5227 54.5338 30.4738 54.6962 30.3761C54.8603 30.2783 54.9887 30.1441 55.0815 29.9734C55.176 29.801 55.2232 29.6063 55.2232 29.3892C55.2232 29.1671 55.1743 28.9691 55.0765 28.7951C54.9804 28.6194 54.8478 28.4811 54.6788 28.38C54.5098 28.2789 54.3167 28.2275 54.0996 28.2259C53.9438 28.2242 53.7839 28.2482 53.6199 28.2979C53.4558 28.346 53.3207 28.4081 53.2147 28.4844L52.638 28.4148L52.9462 25.9091H55.5911V26.456H53.4632L53.2843 27.9574H53.3141C53.4185 27.8745 53.5494 27.8058 53.7069 27.7511C53.8643 27.6964 54.0283 27.669 54.199 27.669C54.5106 27.669 54.7882 27.7436 55.0318 27.8928C55.277 28.0402 55.4693 28.2424 55.6085 28.4993C55.7493 28.7562 55.8198 29.0495 55.8198 29.3793C55.8198 29.7041 55.7469 29.9941 55.601 30.2493C55.4569 30.5028 55.258 30.7034 55.0044 30.8509C54.7509 30.9967 54.4625 31.0696 54.1394 31.0696ZM58.07 28.4545C58.07 29.081 57.988 29.6577 57.824 30.1847C57.6615 30.71 57.4287 31.1939 57.1254 31.6364H56.6084C56.7277 31.4723 56.8387 31.2701 56.9415 31.0298C57.0459 30.7912 57.137 30.5294 57.2149 30.2443C57.2928 29.9576 57.3533 29.6618 57.3964 29.3569C57.4411 29.0503 57.4635 28.7495 57.4635 28.4545C57.4635 28.0601 57.4254 27.6599 57.3492 27.2539C57.2729 26.8479 57.1702 26.4709 57.0409 26.1229C56.9117 25.7749 56.7675 25.4915 56.6084 25.2727H57.1254C57.4287 25.7152 57.6615 26.1999 57.824 26.7269C57.988 27.2522 58.07 27.8281 58.07 28.4545Z" fill="white"/>
</svg>
