<svg width="100" height="45" viewBox="0 0 100 45" fill="none" xmlns="http://www.w3.org/2000/svg">
<rect width="100" height="45" rx="5" fill="#F58A73"/>
<path d="M7.50568 22V16.1818H9.80114C10.2424 16.1818 10.6184 16.2661 10.929 16.4347C11.2396 16.6013 11.4763 16.8333 11.6392 17.1307C11.804 17.4261 11.8864 17.767 11.8864 18.1534C11.8864 18.5398 11.803 18.8807 11.6364 19.1761C11.4697 19.4716 11.2282 19.7017 10.9119 19.8665C10.5975 20.0312 10.2169 20.1136 9.76989 20.1136H8.30682V19.1278H9.57102C9.80777 19.1278 10.0028 19.0871 10.1562 19.0057C10.3116 18.9223 10.4271 18.8078 10.5028 18.6619C10.5805 18.5142 10.6193 18.3447 10.6193 18.1534C10.6193 17.9602 10.5805 17.7917 10.5028 17.6477C10.4271 17.5019 10.3116 17.3892 10.1562 17.3097C10.0009 17.2282 9.80398 17.1875 9.56534 17.1875H8.7358V22H7.50568ZM12.6626 22V17.6364H13.8359V18.3977H13.8814C13.9609 18.1269 14.0945 17.9223 14.282 17.7841C14.4695 17.6439 14.6854 17.5739 14.9297 17.5739C14.9903 17.5739 15.0556 17.5777 15.1257 17.5852C15.1958 17.5928 15.2573 17.6032 15.3104 17.6165V18.6903C15.2536 18.6733 15.175 18.6581 15.0746 18.6449C14.9742 18.6316 14.8823 18.625 14.799 18.625C14.621 18.625 14.4619 18.6638 14.3217 18.7415C14.1835 18.8172 14.0736 18.9233 13.9922 19.0597C13.9126 19.196 13.8729 19.3532 13.8729 19.5312V22H12.6626ZM17.7045 22.0852C17.2633 22.0852 16.8816 21.9915 16.5597 21.804C16.2396 21.6146 15.9924 21.3513 15.8182 21.0142C15.6439 20.6752 15.5568 20.2822 15.5568 19.8352C15.5568 19.3845 15.6439 18.9905 15.8182 18.6534C15.9924 18.3144 16.2396 18.0511 16.5597 17.8636C16.8816 17.6742 17.2633 17.5795 17.7045 17.5795C18.1458 17.5795 18.5265 17.6742 18.8466 17.8636C19.1686 18.0511 19.4167 18.3144 19.5909 18.6534C19.7652 18.9905 19.8523 19.3845 19.8523 19.8352C19.8523 20.2822 19.7652 20.6752 19.5909 21.0142C19.4167 21.3513 19.1686 21.6146 18.8466 21.804C18.5265 21.9915 18.1458 22.0852 17.7045 22.0852ZM17.7102 21.1477C17.911 21.1477 18.0786 21.0909 18.2131 20.9773C18.3475 20.8617 18.4489 20.7045 18.517 20.5057C18.5871 20.3068 18.6222 20.0805 18.6222 19.8267C18.6222 19.5729 18.5871 19.3466 18.517 19.1477C18.4489 18.9489 18.3475 18.7917 18.2131 18.6761C18.0786 18.5606 17.911 18.5028 17.7102 18.5028C17.5076 18.5028 17.3371 18.5606 17.1989 18.6761C17.0625 18.7917 16.9593 18.9489 16.8892 19.1477C16.821 19.3466 16.7869 19.5729 16.7869 19.8267C16.7869 20.0805 16.821 20.3068 16.8892 20.5057C16.9593 20.7045 17.0625 20.8617 17.1989 20.9773C17.3371 21.0909 17.5076 21.1477 17.7102 21.1477ZM22.9858 17.6364V18.5455H20.2926V17.6364H22.9858ZM20.9091 22V17.321C20.9091 17.0047 20.9706 16.7424 21.0938 16.5341C21.2188 16.3258 21.3892 16.1695 21.6051 16.0653C21.821 15.9612 22.0663 15.9091 22.3409 15.9091C22.5265 15.9091 22.696 15.9233 22.8494 15.9517C23.0047 15.9801 23.1203 16.0057 23.196 16.0284L22.9801 16.9375C22.9328 16.9223 22.8741 16.9081 22.804 16.8949C22.7358 16.8816 22.6657 16.875 22.5938 16.875C22.4157 16.875 22.2917 16.9167 22.2216 17C22.1515 17.0814 22.1165 17.196 22.1165 17.3438V22H20.9091ZM23.7251 22V17.6364H24.9354V22H23.7251ZM24.3331 17.0739C24.1532 17.0739 23.9988 17.0142 23.87 16.8949C23.7431 16.7737 23.6797 16.6288 23.6797 16.4602C23.6797 16.2936 23.7431 16.1506 23.87 16.0312C23.9988 15.91 24.1532 15.8494 24.3331 15.8494C24.513 15.8494 24.6664 15.91 24.7933 16.0312C24.9221 16.1506 24.9865 16.2936 24.9865 16.4602C24.9865 16.6288 24.9221 16.7737 24.7933 16.8949C24.6664 17.0142 24.513 17.0739 24.3331 17.0739ZM29.5355 18.8807L28.4276 18.9489C28.4086 18.8542 28.3679 18.7689 28.3054 18.6932C28.2429 18.6155 28.1605 18.554 28.0582 18.5085C27.9579 18.4612 27.8376 18.4375 27.6974 18.4375C27.5099 18.4375 27.3518 18.4773 27.223 18.5568C27.0942 18.6345 27.0298 18.7386 27.0298 18.8693C27.0298 18.9735 27.0715 19.0616 27.1548 19.1335C27.2382 19.2055 27.3812 19.2633 27.5838 19.3068L28.3736 19.4659C28.7978 19.553 29.1141 19.6932 29.3224 19.8864C29.5308 20.0795 29.6349 20.3333 29.6349 20.6477C29.6349 20.9337 29.5507 21.1847 29.3821 21.4006C29.2154 21.6165 28.9863 21.785 28.6946 21.9062C28.4048 22.0256 28.0705 22.0852 27.6918 22.0852C27.1141 22.0852 26.6539 21.965 26.3111 21.7244C25.9702 21.482 25.7704 21.1525 25.7116 20.7358L26.902 20.6733C26.938 20.8494 27.0251 20.9839 27.1634 21.0767C27.3016 21.1676 27.4787 21.2131 27.6946 21.2131C27.9067 21.2131 28.0772 21.1723 28.206 21.0909C28.3366 21.0076 28.4029 20.9006 28.4048 20.7699C28.4029 20.66 28.3565 20.5701 28.2656 20.5C28.1747 20.428 28.0346 20.3731 27.8452 20.3352L27.0895 20.1847C26.6634 20.0994 26.3461 19.9517 26.1378 19.7415C25.9313 19.5312 25.8281 19.2633 25.8281 18.9375C25.8281 18.6572 25.9039 18.4157 26.0554 18.2131C26.2088 18.0104 26.4238 17.8542 26.7003 17.7443C26.9787 17.6345 27.3045 17.5795 27.6776 17.5795C28.2287 17.5795 28.6624 17.696 28.9787 17.929C29.2969 18.1619 29.4825 18.4792 29.5355 18.8807ZM30.397 22V17.6364H31.6072V22H30.397ZM31.005 17.0739C30.825 17.0739 30.6707 17.0142 30.5419 16.8949C30.415 16.7737 30.3516 16.6288 30.3516 16.4602C30.3516 16.2936 30.415 16.1506 30.5419 16.0312C30.6707 15.91 30.825 15.8494 31.005 15.8494C31.1849 15.8494 31.3383 15.91 31.4652 16.0312C31.594 16.1506 31.6584 16.2936 31.6584 16.4602C31.6584 16.6288 31.594 16.7737 31.4652 16.8949C31.3383 17.0142 31.1849 17.0739 31.005 17.0739ZM34.5653 22.0852C34.1165 22.0852 33.7301 21.9943 33.4062 21.8125C33.0843 21.6288 32.8362 21.3693 32.6619 21.0341C32.4877 20.697 32.4006 20.2983 32.4006 19.8381C32.4006 19.3892 32.4877 18.9953 32.6619 18.6562C32.8362 18.3172 33.0814 18.053 33.3977 17.8636C33.7159 17.6742 34.089 17.5795 34.517 17.5795C34.8049 17.5795 35.0729 17.6259 35.321 17.7188C35.571 17.8097 35.7888 17.947 35.9744 18.1307C36.1619 18.3144 36.3078 18.5455 36.4119 18.8239C36.5161 19.1004 36.5682 19.4242 36.5682 19.7955V20.1278H32.8835V19.3778H35.429C35.429 19.2036 35.3911 19.0492 35.3153 18.9148C35.2396 18.7803 35.1345 18.6752 35 18.5994C34.8674 18.5218 34.7131 18.483 34.5369 18.483C34.3532 18.483 34.1903 18.5256 34.0483 18.6108C33.9081 18.6941 33.7983 18.8068 33.7188 18.9489C33.6392 19.089 33.5985 19.2453 33.5966 19.4176V20.1307C33.5966 20.3466 33.6364 20.5331 33.7159 20.6903C33.7973 20.8475 33.9119 20.9688 34.0597 21.054C34.2074 21.1392 34.3826 21.1818 34.5852 21.1818C34.7197 21.1818 34.8428 21.1629 34.9545 21.125C35.0663 21.0871 35.1619 21.0303 35.2415 20.9545C35.321 20.8788 35.3816 20.786 35.4233 20.6761L36.5426 20.75C36.4858 21.0189 36.3693 21.2538 36.1932 21.4545C36.0189 21.6534 35.7936 21.8087 35.517 21.9205C35.2424 22.0303 34.9252 22.0852 34.5653 22.0852ZM38.5682 19.4773V22H37.358V17.6364H38.5114V18.4062H38.5625C38.6591 18.1525 38.821 17.9517 39.0483 17.804C39.2756 17.6544 39.5511 17.5795 39.875 17.5795C40.178 17.5795 40.4422 17.6458 40.6676 17.7784C40.893 17.911 41.0682 18.1004 41.1932 18.3466C41.3182 18.5909 41.3807 18.8826 41.3807 19.2216V22H40.1705V19.4375C40.1723 19.1705 40.1042 18.9621 39.9659 18.8125C39.8277 18.661 39.6373 18.5852 39.3949 18.5852C39.232 18.5852 39.0881 18.6203 38.9631 18.6903C38.84 18.7604 38.7434 18.8627 38.6733 18.9972C38.6051 19.1297 38.5701 19.2898 38.5682 19.4773ZM45.9652 18.8807L44.8572 18.9489C44.8383 18.8542 44.7976 18.7689 44.7351 18.6932C44.6726 18.6155 44.5902 18.554 44.4879 18.5085C44.3875 18.4612 44.2673 18.4375 44.1271 18.4375C43.9396 18.4375 43.7815 18.4773 43.6527 18.5568C43.5239 18.6345 43.4595 18.7386 43.4595 18.8693C43.4595 18.9735 43.5012 19.0616 43.5845 19.1335C43.6679 19.2055 43.8108 19.2633 44.0135 19.3068L44.8033 19.4659C45.2275 19.553 45.5438 19.6932 45.7521 19.8864C45.9605 20.0795 46.0646 20.3333 46.0646 20.6477C46.0646 20.9337 45.9804 21.1847 45.8118 21.4006C45.6451 21.6165 45.416 21.785 45.1243 21.9062C44.8345 22.0256 44.5002 22.0852 44.1214 22.0852C43.5438 22.0852 43.0836 21.965 42.7408 21.7244C42.3999 21.482 42.2 21.1525 42.1413 20.7358L43.3317 20.6733C43.3677 20.8494 43.4548 20.9839 43.593 21.0767C43.7313 21.1676 43.9084 21.2131 44.1243 21.2131C44.3364 21.2131 44.5069 21.1723 44.6357 21.0909C44.7663 21.0076 44.8326 20.9006 44.8345 20.7699C44.8326 20.66 44.7862 20.5701 44.6953 20.5C44.6044 20.428 44.4643 20.3731 44.2749 20.3352L43.5192 20.1847C43.093 20.0994 42.7758 19.9517 42.5675 19.7415C42.361 19.5312 42.2578 19.2633 42.2578 18.9375C42.2578 18.6572 42.3336 18.4157 42.4851 18.2131C42.6385 18.0104 42.8535 17.8542 43.13 17.7443C43.4084 17.6345 43.7341 17.5795 44.1072 17.5795C44.6584 17.5795 45.0921 17.696 45.4084 17.929C45.7266 18.1619 45.9122 18.4792 45.9652 18.8807ZM46.8267 22V17.6364H48.0369V22H46.8267ZM47.4347 17.0739C47.2547 17.0739 47.1004 17.0142 46.9716 16.8949C46.8447 16.7737 46.7812 16.6288 46.7812 16.4602C46.7812 16.2936 46.8447 16.1506 46.9716 16.0312C47.1004 15.91 47.2547 15.8494 47.4347 15.8494C47.6146 15.8494 47.768 15.91 47.8949 16.0312C48.0237 16.1506 48.0881 16.2936 48.0881 16.4602C48.0881 16.6288 48.0237 16.7737 47.8949 16.8949C47.768 17.0142 47.6146 17.0739 47.4347 17.0739Z" fill="white"/>
<path d="M9.31676 25.9091V31H8.70028V26.5554H8.67045L7.42756 27.3807V26.7543L8.70028 25.9091H9.31676ZM12.4414 31.0696C12.0669 31.0696 11.7479 30.9677 11.4844 30.7638C11.2209 30.5584 11.0195 30.2609 10.8803 29.8714C10.7411 29.4804 10.6715 29.008 10.6715 28.4545C10.6715 27.9044 10.7411 27.4345 10.8803 27.0451C11.0212 26.654 11.2234 26.3557 11.4869 26.1502C11.752 25.9431 12.0702 25.8395 12.4414 25.8395C12.8126 25.8395 13.13 25.9431 13.3935 26.1502C13.6586 26.3557 13.8608 26.654 14 27.0451C14.1409 27.4345 14.2113 27.9044 14.2113 28.4545C14.2113 29.008 14.1417 29.4804 14.0025 29.8714C13.8633 30.2609 13.6619 30.5584 13.3984 30.7638C13.1349 30.9677 12.8159 31.0696 12.4414 31.0696ZM12.4414 30.5227C12.8126 30.5227 13.101 30.3437 13.3065 29.9858C13.512 29.6278 13.6147 29.1174 13.6147 28.4545C13.6147 28.0137 13.5675 27.6384 13.473 27.3285C13.3802 27.0186 13.246 26.7824 13.0703 26.62C12.8963 26.4576 12.6867 26.3764 12.4414 26.3764C12.0735 26.3764 11.786 26.5579 11.5788 26.9208C11.3717 27.2821 11.2681 27.7933 11.2681 28.4545C11.2681 28.8954 11.3145 29.2699 11.4073 29.5781C11.5001 29.8864 11.6335 30.1209 11.8075 30.2816C11.9832 30.4424 12.1945 30.5227 12.4414 30.5227ZM19.3221 28.1811V28.728H17.0948V28.1811H19.3221ZM24.1029 25.9091V31H23.4864V26.5554H23.4566L22.2137 27.3807V26.7543L23.4864 25.9091H24.1029ZM25.567 31V30.5526L27.2474 28.7131C27.4446 28.4976 27.607 28.3104 27.7346 28.1513C27.8622 27.9905 27.9567 27.8397 28.018 27.6989C28.081 27.5563 28.1125 27.4072 28.1125 27.2514C28.1125 27.0724 28.0694 26.9175 27.9832 26.7866C27.8987 26.6557 27.7827 26.5546 27.6352 26.4833C27.4877 26.4121 27.322 26.3764 27.1381 26.3764C26.9425 26.3764 26.7718 26.417 26.626 26.4982C26.4818 26.5778 26.3699 26.6896 26.2904 26.8338C26.2125 26.978 26.1736 27.147 26.1736 27.3409H25.5869C25.5869 27.0426 25.6557 26.7808 25.7932 26.5554C25.9308 26.33 26.118 26.1544 26.355 26.0284C26.5937 25.9025 26.8613 25.8395 27.1579 25.8395C27.4562 25.8395 27.7206 25.9025 27.9509 26.0284C28.1813 26.1544 28.3619 26.3242 28.4928 26.538C28.6237 26.7518 28.6892 26.9896 28.6892 27.2514C28.6892 27.4387 28.6552 27.6218 28.5873 27.8008C28.521 27.9781 28.405 28.1761 28.2393 28.3949C28.0752 28.612 27.8473 28.8771 27.5557 29.1903L26.4122 30.4134V30.4531H28.7787V31H25.567ZM34.6476 27.1818C34.6178 26.9299 34.4968 26.7344 34.2847 26.5952C34.0726 26.456 33.8124 26.3864 33.5042 26.3864C33.2788 26.3864 33.0816 26.4228 32.9126 26.4957C32.7452 26.5687 32.6143 26.6689 32.5198 26.7965C32.427 26.9241 32.3806 27.0691 32.3806 27.2315C32.3806 27.3674 32.4129 27.4843 32.4775 27.582C32.5438 27.6781 32.6283 27.7585 32.7311 27.8232C32.8338 27.8861 32.9416 27.9383 33.0542 27.9798C33.1669 28.0195 33.2705 28.0518 33.365 28.0767L33.882 28.2159C34.0146 28.2507 34.1621 28.2988 34.3245 28.3601C34.4885 28.4214 34.6452 28.5051 34.7943 28.6112C34.9451 28.7156 35.0694 28.8498 35.1672 29.0138C35.2649 29.1779 35.3138 29.3793 35.3138 29.6179C35.3138 29.893 35.2417 30.1416 35.0976 30.3636C34.955 30.5857 34.7462 30.7622 34.4711 30.8931C34.1977 31.024 33.8654 31.0895 33.4743 31.0895C33.1098 31.0895 32.7941 31.0307 32.5273 30.913C32.2621 30.7953 32.0533 30.6313 31.9008 30.4208C31.75 30.2103 31.6647 29.9659 31.6448 29.6875H32.2812C32.2977 29.8797 32.3624 30.0388 32.4751 30.1648C32.5894 30.2891 32.7336 30.3819 32.9076 30.4432C33.0832 30.5028 33.2722 30.5327 33.4743 30.5327C33.7097 30.5327 33.921 30.4946 34.1082 30.4183C34.2955 30.3404 34.4438 30.2327 34.5532 30.0952C34.6626 29.956 34.7172 29.7936 34.7172 29.608C34.7172 29.4389 34.67 29.3014 34.5756 29.1953C34.4811 29.0893 34.3568 29.0031 34.2027 28.9368C34.0486 28.8705 33.882 28.8125 33.703 28.7628L33.0766 28.5838C32.6789 28.4695 32.364 28.3062 32.132 28.0941C31.9 27.882 31.784 27.6044 31.784 27.2614C31.784 26.9763 31.8611 26.7277 32.0152 26.5156C32.171 26.3018 32.3798 26.1361 32.6416 26.0185C32.9051 25.8991 33.1992 25.8395 33.5241 25.8395C33.8522 25.8395 34.1439 25.8983 34.3991 26.016C34.6543 26.132 34.8564 26.2911 35.0056 26.4933C35.1564 26.6954 35.2359 26.925 35.2442 27.1818H34.6476ZM36.3274 25.9091H37.0632L38.7933 30.1349H38.853L40.5831 25.9091H41.3189V31H40.7422V27.1321H40.6925L39.1016 31H38.5447L36.9538 27.1321H36.9041V31H36.3274V25.9091ZM42.7638 31H42.1175L43.9868 25.9091H44.6231L46.4925 31H45.8461L44.3248 26.7145H44.2851L42.7638 31ZM43.0024 29.0114H45.6075V29.5582H43.0024V29.0114ZM49.3834 28.4545C49.3834 27.8281 49.4646 27.2522 49.627 26.7269C49.7911 26.1999 50.0248 25.7152 50.328 25.2727H50.8451C50.7258 25.4368 50.6139 25.639 50.5095 25.8793C50.4068 26.1179 50.3164 26.3806 50.2385 26.6673C50.1607 26.9523 50.0993 27.2473 50.0546 27.5522C50.0115 27.8571 49.99 28.1579 49.99 28.4545C49.99 28.849 50.0281 29.2492 50.1043 29.6552C50.1805 30.0612 50.2833 30.4382 50.4126 30.7862C50.5418 31.1342 50.686 31.4176 50.8451 31.6364H50.328C50.0248 31.1939 49.7911 30.71 49.627 30.1847C49.4646 29.6577 49.3834 29.081 49.3834 28.4545ZM51.7008 31V30.5526L53.3812 28.7131C53.5784 28.4976 53.7408 28.3104 53.8684 28.1513C53.996 27.9905 54.0905 27.8397 54.1518 27.6989C54.2148 27.5563 54.2463 27.4072 54.2463 27.2514C54.2463 27.0724 54.2032 26.9175 54.117 26.7866C54.0325 26.6557 53.9165 26.5546 53.769 26.4833C53.6215 26.4121 53.4558 26.3764 53.2718 26.3764C53.0763 26.3764 52.9056 26.417 52.7598 26.4982C52.6156 26.5778 52.5037 26.6896 52.4242 26.8338C52.3463 26.978 52.3074 27.147 52.3074 27.3409H51.7207C51.7207 27.0426 51.7895 26.7808 51.927 26.5554C52.0646 26.33 52.2518 26.1544 52.4888 26.0284C52.7275 25.9025 52.9951 25.8395 53.2917 25.8395C53.59 25.8395 53.8543 25.9025 54.0847 26.0284C54.315 26.1544 54.4957 26.3242 54.6266 26.538C54.7575 26.7518 54.823 26.9896 54.823 27.2514C54.823 27.4387 54.789 27.6218 54.7211 27.8008C54.6548 27.9781 54.5388 28.1761 54.373 28.3949C54.209 28.612 53.9811 28.8771 53.6895 29.1903L52.546 30.4134V30.4531H54.9125V31H51.7008ZM57.5996 31.0696C57.2251 31.0696 56.9061 30.9677 56.6426 30.7638C56.3791 30.5584 56.1777 30.2609 56.0385 29.8714C55.8993 29.4804 55.8297 29.008 55.8297 28.4545C55.8297 27.9044 55.8993 27.4345 56.0385 27.0451C56.1794 26.654 56.3816 26.3557 56.6451 26.1502C56.9102 25.9431 57.2284 25.8395 57.5996 25.8395C57.9708 25.8395 58.2882 25.9431 58.5517 26.1502C58.8168 26.3557 59.019 26.654 59.1582 27.0451C59.2991 27.4345 59.3695 27.9044 59.3695 28.4545C59.3695 29.008 59.2999 29.4804 59.1607 29.8714C59.0215 30.2609 58.8201 30.5584 58.5566 30.7638C58.2931 30.9677 57.9741 31.0696 57.5996 31.0696ZM57.5996 30.5227C57.9708 30.5227 58.2592 30.3437 58.4647 29.9858C58.6702 29.6278 58.7729 29.1174 58.7729 28.4545C58.7729 28.0137 58.7257 27.6384 58.6312 27.3285C58.5384 27.0186 58.4042 26.7824 58.2285 26.62C58.0545 26.4576 57.8449 26.3764 57.5996 26.3764C57.2317 26.3764 56.9442 26.5579 56.737 26.9208C56.5299 27.2821 56.4263 27.7933 56.4263 28.4545C56.4263 28.8954 56.4727 29.2699 56.5655 29.5781C56.6583 29.8864 56.7917 30.1209 56.9657 30.2816C57.1414 30.4424 57.3527 30.5227 57.5996 30.5227ZM62.0343 31.0696C61.7061 31.0696 61.4136 31.0133 61.1568 30.9006C60.9016 30.7879 60.6986 30.6313 60.5478 30.4308C60.3986 30.2286 60.3174 29.9941 60.3042 29.7273H60.9306C60.9438 29.8913 61.0002 30.033 61.0996 30.1523C61.199 30.27 61.3291 30.3612 61.4899 30.4258C61.6506 30.4904 61.8288 30.5227 62.0243 30.5227C62.2431 30.5227 62.437 30.4846 62.606 30.4084C62.775 30.3321 62.9076 30.2261 63.0037 30.0902C63.0998 29.9543 63.1479 29.7969 63.1479 29.6179C63.1479 29.4306 63.1015 29.2657 63.0087 29.1232C62.9159 28.979 62.78 28.8664 62.601 28.7852C62.4221 28.704 62.2033 28.6634 61.9448 28.6634H61.5371V28.1165H61.9448C62.147 28.1165 62.3243 28.08 62.4767 28.0071C62.6309 27.9342 62.751 27.8314 62.8372 27.6989C62.925 27.5663 62.9689 27.4105 62.9689 27.2315C62.9689 27.0592 62.9308 26.9092 62.8546 26.7816C62.7783 26.654 62.6706 26.5546 62.5314 26.4833C62.3939 26.4121 62.2315 26.3764 62.0442 26.3764C61.8685 26.3764 61.7028 26.4087 61.5471 26.4734C61.3929 26.5363 61.267 26.6283 61.1692 26.7493C61.0714 26.8686 61.0184 27.0128 61.0101 27.1818H60.4135C60.4235 26.915 60.5038 26.6813 60.6547 26.4808C60.8055 26.2786 61.0027 26.1212 61.2463 26.0085C61.4915 25.8958 61.7608 25.8395 62.0542 25.8395C62.369 25.8395 62.6391 25.9033 62.8645 26.0309C63.0899 26.1568 63.2631 26.3234 63.3841 26.5305C63.505 26.7377 63.5655 26.9614 63.5655 27.2017C63.5655 27.4884 63.4901 27.7328 63.3393 27.935C63.1902 28.1372 62.9872 28.2772 62.7303 28.3551V28.3949C63.0518 28.4479 63.3029 28.5846 63.4835 28.805C63.6641 29.0238 63.7544 29.2947 63.7544 29.6179C63.7544 29.8946 63.679 30.1432 63.5282 30.3636C63.3791 30.5824 63.1752 30.7547 62.9167 30.8807C62.6582 31.0066 62.3641 31.0696 62.0343 31.0696ZM66.362 31.0696C66.0704 31.0696 65.8077 31.0116 65.574 30.8956C65.3404 30.7796 65.1531 30.6205 65.0123 30.4183C64.8714 30.2161 64.7943 29.9858 64.7811 29.7273H65.3777C65.4009 29.9576 65.5053 30.1482 65.6909 30.299C65.8781 30.4482 66.1019 30.5227 66.362 30.5227C66.5708 30.5227 66.7565 30.4738 66.9189 30.3761C67.0829 30.2783 67.2114 30.1441 67.3042 29.9734C67.3986 29.801 67.4458 29.6063 67.4458 29.3892C67.4458 29.1671 67.397 28.9691 67.2992 28.7951C67.2031 28.6194 67.0705 28.4811 66.9015 28.38C66.7324 28.2789 66.5394 28.2275 66.3223 28.2259C66.1665 28.2242 66.0066 28.2482 65.8425 28.2979C65.6784 28.346 65.5434 28.4081 65.4373 28.4844L64.8606 28.4148L65.1689 25.9091H67.8137V26.456H65.6859L65.5069 27.9574H65.5368C65.6412 27.8745 65.7721 27.8058 65.9295 27.7511C66.0869 27.6964 66.251 27.669 66.4217 27.669C66.7333 27.669 67.0108 27.7436 67.2544 27.8928C67.4997 28.0402 67.6919 28.2424 67.8311 28.4993C67.972 28.7562 68.0424 29.0495 68.0424 29.3793C68.0424 29.7041 67.9695 29.9941 67.8237 30.2493C67.6795 30.5028 67.4806 30.7034 67.2271 30.8509C66.9735 30.9967 66.6852 31.0696 66.362 31.0696ZM70.2927 28.4545C70.2927 29.081 70.2107 29.6577 70.0466 30.1847C69.8842 30.71 69.6514 31.1939 69.3481 31.6364H68.8311C68.9504 31.4723 69.0614 31.2701 69.1642 31.0298C69.2686 30.7912 69.3597 30.5294 69.4376 30.2443C69.5155 29.9576 69.576 29.6618 69.6191 29.3569C69.6638 29.0503 69.6862 28.7495 69.6862 28.4545C69.6862 28.0601 69.6481 27.6599 69.5718 27.2539C69.4956 26.8479 69.3928 26.4709 69.2636 26.1229C69.1343 25.7749 68.9901 25.4915 68.8311 25.2727H69.3481C69.6514 25.7152 69.8842 26.1999 70.0466 26.7269C70.2107 27.2522 70.2927 27.8281 70.2927 28.4545Z" fill="white"/>
</svg>
