<svg width="200" height="206" viewBox="0 0 200 206" fill="none" xmlns="http://www.w3.org/2000/svg">
<g clip-path="url(#clip0_357_31)">
<rect width="200" height="206" fill="#F0F0F0"/>
<path d="M200 0H0V206H200V0Z" fill="#F0F0F0"/>
<path d="M40.3744 165.582C33.5402 158.748 33.5402 147.668 40.3744 140.834L135.834 45.3743C142.668 38.5402 153.748 38.5402 160.583 45.3743C167.417 52.2085 167.417 63.2889 160.583 70.1231L65.1231 165.582C58.2889 172.417 47.2086 172.417 40.3744 165.582Z" fill="black"/>
<path d="M160.583 140.834L65.1231 45.3744C58.2889 38.5402 47.2085 38.5402 40.3743 45.3744C33.5402 52.2085 33.5402 63.2889 40.3743 70.1231L135.834 165.583C142.668 172.417 153.748 172.417 160.583 165.583C167.417 158.748 167.417 147.668 160.583 140.834Z" fill="black"/>
</g>
<defs>
<clipPath id="clip0_357_31">
<rect width="200" height="206" fill="white"/>
</clipPath>
</defs>
</svg>
