<svg xmlns="http://www.w3.org/2000/svg" fill="none" viewBox="0 0 459 107" style="max-height: 500px" width="459" height="107">
<path fill="black" d="M241.567 23.0147L239.334 18.8393H239.169L239.582 23.0147V41.9489H236.358V12.5555H238.177L252.026 31.8617L254.175 35.8304H254.382L253.927 31.8617V13.0102H257.152V42.4036H255.333L241.567 23.0147ZM272.607 21.2784V33.0606C272.607 34.1354 272.662 35.0863 272.772 35.9131C272.91 36.7124 273.131 37.3876 273.434 37.9388C273.737 38.4624 274.151 38.8621 274.674 39.1377C275.198 39.4133 275.859 39.5511 276.658 39.5511C277.403 39.5511 278.064 39.4409 278.643 39.2204C279.222 38.9723 279.732 38.6416 280.172 38.2282C280.641 37.8148 281.041 37.3462 281.371 36.8226C281.729 36.2714 282.019 35.6926 282.239 35.0863V21.2784H285.547V36.0785C285.547 37.0706 285.574 38.1042 285.629 39.179C285.712 40.2263 285.836 41.1496 286.001 41.9489H283.728L282.901 38.6829H282.694C282.06 39.7578 281.206 40.6535 280.131 41.3701C279.056 42.0867 277.692 42.445 276.038 42.445C274.936 42.445 273.957 42.3071 273.103 42.0315C272.276 41.7835 271.574 41.3288 270.995 40.6673C270.443 40.0058 270.017 39.1239 269.713 38.0215C269.438 36.8915 269.3 35.4721 269.3 33.7634V21.2784H272.607ZM306.798 36.3265C306.798 35.4997 306.55 34.852 306.054 34.3835C305.558 33.9149 304.938 33.5291 304.194 33.2259C303.477 32.8952 302.678 32.592 301.796 32.3164C300.942 32.0132 300.142 31.6412 299.398 31.2002C298.681 30.7317 298.075 30.1392 297.579 29.4226C297.083 28.706 296.835 27.7414 296.835 26.5287C296.835 24.5443 297.4 23.0974 298.53 22.1879C299.66 21.2509 301.231 20.7823 303.243 20.7823C304.731 20.7823 305.971 20.9201 306.963 21.1957C307.983 21.4438 308.865 21.747 309.609 22.1052L308.824 24.8337C308.19 24.5305 307.418 24.2688 306.509 24.0483C305.627 23.8002 304.676 23.6762 303.656 23.6762C302.443 23.6762 301.548 23.8829 300.969 24.2963C300.418 24.7097 300.142 25.4263 300.142 26.446C300.142 27.1626 300.39 27.7276 300.886 28.141C301.382 28.5269 301.989 28.8851 302.705 29.2159C303.449 29.5191 304.249 29.8222 305.103 30.1254C305.985 30.4286 306.784 30.8282 307.501 31.3243C308.245 31.8203 308.865 32.4543 309.361 33.2259C309.857 33.9701 310.105 34.9623 310.105 36.2025C310.105 37.0844 309.954 37.9113 309.651 38.6829C309.375 39.4546 308.934 40.1161 308.328 40.6673C307.721 41.2185 306.963 41.6457 306.054 41.9489C305.172 42.2796 304.125 42.445 302.912 42.445C301.341 42.445 300.004 42.2934 298.902 41.9902C297.8 41.687 296.876 41.3288 296.132 40.9153L297.124 38.1042C297.758 38.4624 298.585 38.7932 299.605 39.0963C300.624 39.3995 301.658 39.5511 302.705 39.5511C303.89 39.5511 304.869 39.3168 305.64 38.8483C306.412 38.3797 306.798 37.5392 306.798 36.3265ZM320.56 22.808C321.608 22.1741 322.82 21.7056 324.198 21.4024C325.604 21.0992 327.065 20.9477 328.58 20.9477C330.014 20.9477 331.157 21.1406 332.011 21.5265C332.894 21.9123 333.555 22.4222 333.996 23.0561C334.464 23.6624 334.768 24.3376 334.905 25.0818C335.071 25.8259 335.153 26.57 335.153 27.3142C335.153 28.9678 335.112 30.5801 335.029 32.1511C334.947 33.722 334.905 35.2103 334.905 36.6159C334.905 37.6356 334.947 38.6003 335.029 39.5098C335.112 40.4193 335.264 41.2599 335.484 42.0315H333.045L332.177 39.1377H331.97C331.722 39.5236 331.405 39.9094 331.019 40.2952C330.661 40.6535 330.22 40.9842 329.696 41.2874C329.173 41.563 328.567 41.7973 327.877 41.9902C327.189 42.1831 326.403 42.2796 325.521 42.2796C324.639 42.2796 323.813 42.1418 323.041 41.8662C322.296 41.5906 321.649 41.2047 321.098 40.7086C320.547 40.185 320.105 39.5649 319.775 38.8483C319.472 38.1317 319.32 37.3187 319.32 36.4092C319.32 35.1965 319.568 34.1906 320.064 33.3913C320.56 32.5645 321.25 31.9168 322.131 31.4483C323.041 30.9522 324.115 30.6077 325.356 30.4148C326.624 30.1942 328.015 30.084 329.531 30.084C329.917 30.084 330.289 30.084 330.647 30.084C331.033 30.084 331.419 30.1116 331.805 30.1667C331.887 29.3399 331.929 28.5958 331.929 27.9343C331.929 26.4185 331.626 25.3574 331.019 24.751C330.413 24.1447 329.311 23.8415 327.712 23.8415C327.244 23.8415 326.734 23.8829 326.182 23.9656C325.659 24.0207 325.108 24.1171 324.529 24.255C323.978 24.3652 323.441 24.5168 322.917 24.7097C322.42 24.8751 321.98 25.068 321.594 25.2885L320.56 22.808ZM326.43 39.3857C327.203 39.3857 327.891 39.2892 328.497 39.0963C329.104 38.8758 329.628 38.6141 330.068 38.3109C330.51 37.9801 330.868 37.6219 331.143 37.236C331.447 36.8501 331.667 36.4781 331.805 36.1198V32.6885C331.419 32.661 331.019 32.6472 330.606 32.6472C330.22 32.6196 329.834 32.6058 329.448 32.6058C328.594 32.6058 327.753 32.661 326.927 32.7712C326.128 32.8539 325.411 33.033 324.777 33.3086C324.171 33.5567 323.675 33.9149 323.289 34.3835C322.931 34.8244 322.751 35.3895 322.751 36.0785C322.751 37.0431 323.096 37.8423 323.785 38.4762C324.474 39.0825 325.356 39.3857 326.43 39.3857ZM360.458 41.9489V30.1667C360.458 28.017 360.141 26.4047 359.507 25.3298C358.9 24.2274 357.771 23.6762 356.117 23.6762C354.656 23.6762 353.443 24.0758 352.479 24.8751C351.542 25.6467 350.88 26.6252 350.495 27.8103V41.9489H347.188V21.2784H349.503L350.123 23.8002H350.288C350.95 22.9182 351.831 22.2017 352.934 21.6505C354.063 21.0717 355.4 20.7823 356.944 20.7823C358.074 20.7823 359.066 20.9201 359.92 21.1957C360.775 21.4438 361.477 21.8985 362.029 22.56C362.608 23.2214 363.034 24.1171 363.31 25.2471C363.613 26.3495 363.765 27.7551 363.765 29.4639V41.9489H360.458ZM372.855 21.2784H376.079V17.1857L379.386 16.2348V21.2784H385.009V24.1723H379.386V35.6237C379.386 37.0568 379.566 38.0766 379.924 38.6829C380.282 39.2617 380.889 39.5511 381.743 39.5511C382.459 39.5511 383.066 39.4822 383.562 39.3444C384.058 39.179 384.609 38.9723 385.215 38.7243L385.959 41.2461C385.215 41.6043 384.402 41.8937 383.52 42.1142C382.638 42.3347 381.687 42.445 380.668 42.445C378.987 42.445 377.801 41.9764 377.113 41.0394C376.424 40.0747 376.079 38.4762 376.079 36.2438V24.1723H372.855V21.2784ZM395.049 22.808C396.096 22.1741 397.309 21.7056 398.687 21.4024C400.092 21.0992 401.553 20.9477 403.069 20.9477C404.502 20.9477 405.646 21.1406 406.5 21.5265C407.382 21.9123 408.044 22.4222 408.484 23.0561C408.953 23.6624 409.256 24.3376 409.394 25.0818C409.559 25.8259 409.642 26.57 409.642 27.3142C409.642 28.9678 409.601 30.5801 409.518 32.1511C409.435 33.722 409.394 35.2103 409.394 36.6159C409.394 37.6356 409.435 38.6003 409.518 39.5098C409.601 40.4193 409.752 41.2599 409.973 42.0315H407.534L406.665 39.1377H406.459C406.211 39.5236 405.894 39.9094 405.508 40.2952C405.15 40.6535 404.709 40.9842 404.185 41.2874C403.662 41.563 403.055 41.7973 402.366 41.9902C401.677 42.1831 400.892 42.2796 400.01 42.2796C399.128 42.2796 398.301 42.1418 397.529 41.8662C396.785 41.5906 396.138 41.2047 395.586 40.7086C395.035 40.185 394.594 39.5649 394.263 38.8483C393.96 38.1317 393.809 37.3187 393.809 36.4092C393.809 35.1965 394.057 34.1906 394.553 33.3913C395.049 32.5645 395.738 31.9168 396.62 31.4483C397.529 30.9522 398.604 30.6077 399.844 30.4148C401.112 30.1942 402.504 30.084 404.02 30.084C404.406 30.084 404.778 30.084 405.136 30.084C405.522 30.084 405.907 30.1116 406.293 30.1667C406.376 29.3399 406.417 28.5958 406.417 27.9343C406.417 26.4185 406.114 25.3574 405.508 24.751C404.902 24.1447 403.799 23.8415 402.201 23.8415C401.732 23.8415 401.223 23.8829 400.671 23.9656C400.148 24.0207 399.596 24.1171 399.018 24.255C398.466 24.3652 397.929 24.5168 397.405 24.7097C396.909 24.8751 396.468 25.068 396.082 25.2885L395.049 22.808ZM400.919 39.3857C401.691 39.3857 402.38 39.2892 402.986 39.0963C403.592 38.8758 404.116 38.6141 404.557 38.3109C404.998 37.9801 405.357 37.6219 405.632 37.236C405.935 36.8501 406.155 36.4781 406.293 36.1198V32.6885C405.907 32.661 405.508 32.6472 405.095 32.6472C404.708 32.6196 404.323 32.6058 403.937 32.6058C403.083 32.6058 402.242 32.661 401.415 32.7712C400.616 32.8539 399.9 33.033 399.266 33.3086C398.659 33.5567 398.163 33.9149 397.777 34.3835C397.419 34.8244 397.24 35.3895 397.24 36.0785C397.24 37.0431 397.585 37.8423 398.273 38.4762C398.962 39.0825 399.844 39.3857 400.919 39.3857ZM431.432 24.4617C430.605 24.1861 429.82 24.0483 429.076 24.0483C427.891 24.0483 426.954 24.379 426.264 25.0404C425.576 25.6743 425.148 26.4874 424.983 27.4795V41.9489H421.676V21.2784H423.991L424.611 23.8002H424.776C425.3 22.8632 425.92 22.1466 426.637 21.6505C427.381 21.1268 428.318 20.865 429.448 20.865C430.247 20.865 431.143 21.0028 432.135 21.2784L431.432 24.4617ZM441.182 22.808C442.23 22.1741 443.442 21.7056 444.82 21.4024C446.226 21.0992 447.687 20.9477 449.202 20.9477C450.635 20.9477 451.779 21.1406 452.634 21.5265C453.516 21.9123 454.177 22.4222 454.618 23.0561C455.087 23.6624 455.389 24.3376 455.527 25.0818C455.693 25.8259 455.775 26.57 455.775 27.3142C455.775 28.9678 455.734 30.5801 455.651 32.1511C455.569 33.722 455.527 35.2103 455.527 36.6159C455.527 37.6356 455.569 38.6003 455.651 39.5098C455.734 40.4193 455.885 41.2599 456.106 42.0315H453.667L452.799 39.1377H452.592C452.344 39.5236 452.027 39.9094 451.641 40.2952C451.283 40.6535 450.842 40.9842 450.318 41.2874C449.795 41.563 449.188 41.7973 448.5 41.9902C447.811 42.1831 447.025 42.2796 446.143 42.2796C445.261 42.2796 444.434 42.1418 443.663 41.8662C442.919 41.5906 442.271 41.2047 441.72 40.7086C441.168 40.185 440.728 39.5649 440.397 38.8483C440.093 38.1317 439.942 37.3187 439.942 36.4092C439.942 35.1965 440.19 34.1906 440.686 33.3913C441.182 32.5645 441.871 31.9168 442.753 31.4483C443.663 30.9522 444.738 30.6077 445.978 30.4148C447.245 30.1942 448.638 30.084 450.153 30.084C450.539 30.084 450.911 30.084 451.269 30.084C451.655 30.084 452.041 30.1116 452.427 30.1667C452.51 29.3399 452.551 28.5958 452.551 27.9343C452.551 26.4185 452.248 25.3574 451.641 24.751C451.035 24.1447 449.932 23.8415 448.334 23.8415C447.865 23.8415 447.356 23.8829 446.805 23.9656C446.281 24.0207 445.73 24.1171 445.151 24.255C444.6 24.3652 444.062 24.5168 443.539 24.7097C443.043 24.8751 442.602 25.068 442.216 25.2885L441.182 22.808ZM447.053 39.3857C447.824 39.3857 448.514 39.2892 449.12 39.0963C449.726 38.8758 450.25 38.6141 450.691 38.3109C451.131 37.9801 451.49 37.6219 451.765 37.236C452.069 36.8501 452.289 36.4781 452.427 36.1198V32.6885C452.041 32.661 451.641 32.6472 451.228 32.6472C450.842 32.6196 450.457 32.6058 450.07 32.6058C449.216 32.6058 448.376 32.661 447.549 32.7712C446.749 32.8539 446.033 33.033 445.399 33.3086C444.793 33.5567 444.297 33.9149 443.911 34.3835C443.553 34.8244 443.373 35.3895 443.373 36.0785C443.373 37.0431 443.718 37.8423 444.407 38.4762C445.096 39.0825 445.978 39.3857 447.053 39.3857ZM236.358 66.7996C237.405 66.5516 238.535 66.3862 239.748 66.3035C240.96 66.2208 242.159 66.1795 243.344 66.1795C244.612 66.1795 245.893 66.3035 247.189 66.5516C248.512 66.7996 249.711 67.2544 250.785 67.9158C251.86 68.5773 252.728 69.4868 253.39 70.6443C254.079 71.8019 254.423 73.2762 254.423 75.0678C254.423 76.8315 254.107 78.3197 253.473 79.5326C252.838 80.7455 251.998 81.7377 250.951 82.5092C249.903 83.2533 248.704 83.7907 247.354 84.1215C246.004 84.4522 244.612 84.6176 243.179 84.6176C243.041 84.6176 242.807 84.6176 242.476 84.6176C242.173 84.6176 241.842 84.6176 241.484 84.6176C241.153 84.5902 240.822 84.5622 240.492 84.5349C240.161 84.5075 239.927 84.4795 239.789 84.4522V95.4489H236.358V66.7996ZM243.427 69.156C242.71 69.156 242.021 69.17 241.36 69.1974C240.698 69.2247 240.175 69.2941 239.789 69.4041V81.393C239.927 81.4483 240.147 81.4896 240.45 81.517C240.754 81.517 241.07 81.531 241.401 81.5583C241.732 81.5583 242.049 81.5583 242.352 81.5583C242.655 81.5583 242.875 81.5583 243.013 81.5583C243.95 81.5583 244.874 81.4756 245.783 81.3103C246.72 81.1176 247.561 80.7868 248.305 80.3181C249.049 79.8494 249.642 79.1879 250.083 78.3337C250.551 77.4796 250.785 76.3907 250.785 75.0678C250.785 73.9376 250.565 73.0007 250.124 72.2566C249.711 71.4851 249.146 70.8784 248.429 70.4376C247.74 69.9689 246.955 69.6382 246.073 69.4454C245.191 69.2527 244.309 69.156 243.427 69.156ZM263.123 76.308C264.17 75.6739 265.383 75.2058 266.761 74.9024C268.167 74.5991 269.627 74.4477 271.143 74.4477C272.576 74.4477 273.72 74.6404 274.574 75.0265C275.456 75.4125 276.117 75.922 276.559 76.5561C277.027 77.1622 277.33 77.8376 277.468 78.5818C277.634 79.3259 277.716 80.07 277.716 80.8142C277.716 82.4678 277.675 84.0801 277.592 85.6511C277.51 87.222 277.468 88.7103 277.468 90.1159C277.468 91.1354 277.51 92.1002 277.592 93.0097C277.675 93.9192 277.826 94.7601 278.047 95.5315H275.608L274.74 92.6377H274.533C274.285 93.0237 273.968 93.4092 273.582 93.7952C273.224 94.1533 272.783 94.484 272.259 94.7874C271.735 95.0628 271.129 95.2975 270.44 95.4902C269.751 95.6829 268.965 95.7796 268.084 95.7796C267.202 95.7796 266.375 95.6416 265.604 95.3662C264.859 95.0908 264.211 94.7047 263.661 94.2086C263.109 93.6852 262.668 93.0651 262.338 92.3483C262.034 91.6315 261.883 90.8187 261.883 89.9092C261.883 88.6963 262.131 87.6908 262.627 86.8913C263.123 86.0645 263.812 85.417 264.694 84.9483C265.604 84.4522 266.678 84.1075 267.919 83.9148C269.186 83.6941 270.578 83.584 272.094 83.584C272.479 83.584 272.851 83.584 273.21 83.584C273.596 83.584 273.982 83.6114 274.368 83.6667C274.45 82.8399 274.492 82.0957 274.492 81.4343C274.492 79.9187 274.188 78.8572 273.582 78.251C272.976 77.6449 271.873 77.3415 270.275 77.3415C269.806 77.3415 269.296 77.3829 268.745 77.4656C268.221 77.5209 267.671 77.617 267.092 77.755C266.54 77.865 266.003 78.017 265.48 78.2097C264.983 78.3751 264.542 78.5678 264.157 78.7885L263.123 76.308ZM268.993 92.8857C269.765 92.8857 270.454 92.7891 271.06 92.5963C271.667 92.3757 272.19 92.1142 272.631 91.8109C273.072 91.4801 273.43 91.1221 273.706 90.736C274.009 90.35 274.23 89.9779 274.368 89.6198V86.1885C273.982 86.1611 273.582 86.1472 273.169 86.1472C272.783 86.1198 272.397 86.1058 272.011 86.1058C271.157 86.1058 270.316 86.1611 269.49 86.2712C268.69 86.3539 267.973 86.5332 267.34 86.8086C266.733 87.0567 266.237 87.4147 265.852 87.8835C265.493 88.3242 265.314 88.8896 265.314 89.5785C265.314 90.5433 265.658 91.3421 266.348 91.9762C267.036 92.5824 267.919 92.8857 268.993 92.8857ZM287.022 74.7784H290.246V70.6857L293.553 69.7348V74.7784H299.176V77.6723H293.553V89.1237C293.553 90.5566 293.733 91.5768 294.091 92.1829C294.449 92.7617 295.056 93.0511 295.91 93.0511C296.626 93.0511 297.233 92.9824 297.729 92.8444C298.225 92.679 298.776 92.4723 299.382 92.2243L300.126 94.7461C299.382 95.1041 298.569 95.3935 297.687 95.6142C296.805 95.8349 295.854 95.945 294.835 95.945C293.154 95.945 291.968 95.4762 291.28 94.5394C290.591 93.5745 290.246 91.9762 290.246 89.7438V77.6723H287.022V74.7784ZM322.817 95.4489V83.6667C322.817 82.5918 322.748 81.655 322.61 80.8555C322.5 80.0287 322.279 79.3533 321.949 78.8298C321.618 78.2784 321.163 77.865 320.584 77.5896C320.033 77.3142 319.303 77.1762 318.393 77.1762C317.098 77.1762 315.927 77.6036 314.879 78.4577C313.832 79.2846 313.157 80.3594 312.854 81.6823V95.4489H309.547V66.5102H312.854V77.0935H313.019C313.736 76.2393 314.59 75.5639 315.582 75.0678C316.602 74.5443 317.856 74.2823 319.344 74.2823C320.502 74.2823 321.508 74.4203 322.362 74.6957C323.216 74.9438 323.919 75.3985 324.47 76.06C325.049 76.7214 325.463 77.6169 325.711 78.7471C325.986 79.8494 326.124 81.255 326.124 82.9639V95.4489H322.817ZM351.337 74.7784L356.091 86.85L357.124 90.8187H357.207L357.993 86.7673L361.672 74.7784H364.814L357.869 95.9036H356.256L350.841 82.2611L350.055 78.8712H349.931L349.104 82.3025L343.896 95.9036H342.283L335.09 74.7784H338.687L342.779 86.8086L343.482 90.8187H343.523L344.516 86.7259L348.939 74.7784H351.337ZM373.799 76.308C374.846 75.6739 376.059 75.2058 377.437 74.9024C378.843 74.5991 380.303 74.4477 381.819 74.4477C383.252 74.4477 384.396 74.6404 385.251 75.0265C386.132 75.4125 386.794 75.922 387.235 76.5561C387.703 77.1622 388.006 77.8376 388.144 78.5818C388.31 79.3259 388.392 80.07 388.392 80.8142C388.392 82.4678 388.351 84.0801 388.268 85.6511C388.186 87.222 388.144 88.7103 388.144 90.1159C388.144 91.1354 388.186 92.1002 388.268 93.0097C388.351 93.9192 388.502 94.7601 388.723 95.5315H386.284L385.416 92.6377H385.209C384.961 93.0237 384.644 93.4092 384.258 93.7952C383.9 94.1533 383.459 94.484 382.935 94.7874C382.411 95.0628 381.805 95.2975 381.117 95.4902C380.427 95.6829 379.642 95.7796 378.76 95.7796C377.878 95.7796 377.051 95.6416 376.28 95.3662C375.536 95.0908 374.887 94.7047 374.337 94.2086C373.785 93.6852 373.345 93.0651 373.014 92.3483C372.71 91.6315 372.559 90.8187 372.559 89.9092C372.559 88.6963 372.807 87.6908 373.303 86.8913C373.799 86.0645 374.488 85.417 375.37 84.9483C376.28 84.4522 377.355 84.1075 378.595 83.9148C379.862 83.6941 381.254 83.584 382.77 83.584C383.156 83.584 383.528 83.584 383.886 83.584C384.272 83.584 384.658 83.6114 385.044 83.6667C385.127 82.8399 385.168 82.0957 385.168 81.4343C385.168 79.9187 384.865 78.8572 384.258 78.251C383.652 77.6449 382.549 77.3415 380.951 77.3415C380.482 77.3415 379.972 77.3829 379.422 77.4656C378.898 77.5209 378.347 77.617 377.768 77.755C377.217 77.865 376.679 78.017 376.156 78.2097C375.66 78.3751 375.218 78.5678 374.833 78.7885L373.799 76.308ZM379.67 92.8857C380.441 92.8857 381.13 92.7891 381.737 92.5963C382.343 92.3757 382.866 92.1142 383.308 91.8109C383.748 91.4801 384.106 91.1221 384.382 90.736C384.685 90.35 384.906 89.9779 385.044 89.6198V86.1885C384.658 86.1611 384.258 86.1472 383.845 86.1472C383.459 86.1198 383.073 86.1058 382.687 86.1058C381.833 86.1058 380.993 86.1611 380.166 86.2712C379.366 86.3539 378.649 86.5332 378.016 86.8086C377.409 87.0567 376.913 87.4147 376.528 87.8835C376.169 88.3242 375.99 88.8896 375.99 89.5785C375.99 90.5433 376.334 91.3421 377.024 91.9762C377.713 92.5824 378.595 92.8857 379.67 92.8857ZM406.503 88.1729L407.661 92.1416H407.867L408.777 88.1315L412.787 74.7784H416.135L410.017 93.3405C409.548 94.6907 409.08 96.0003 408.612 97.2679C408.171 98.5354 407.675 99.6656 407.123 100.658C406.572 101.65 405.952 102.435 405.263 103.014C404.574 103.62 403.775 103.924 402.865 103.924C401.873 103.924 401.06 103.786 400.426 103.51L401.005 100.658C401.363 100.796 401.708 100.865 402.038 100.865C402.81 100.865 403.554 100.451 404.271 99.6243C404.988 98.8248 405.58 97.4332 406.048 95.4489L397.739 74.7784H401.542L406.503 88.1729Z"/>
<path fill-opacity="0.8" fill="#F36D50" d="M12.9474 30.1032L0 30.1032L0 43.0508H12.9474L12.9474 30.1032Z"/>
<path fill-opacity="0.8" fill="#F36D50" d="M25.8948 30.1032L12.9474 30.1032L12.9474 43.0508H25.8948V30.1032Z"/>
<path fill="white" d="M25.8948 43.0508H12.9474L12.9474 55.9983H25.8948V43.0508Z"/>
<path stroke-width="0.5" stroke-opacity="0.8" stroke="#F36D50" d="M25.7428 43.2028H13.0994L13.0994 55.8463H25.7428V43.2028Z"/>
<path fill-opacity="0.8" fill="#F36D50" d="M38.8421 43.0508H25.8947L25.8947 55.9983H38.8421V43.0508Z"/>
<path fill-opacity="0.8" fill="#F36D50" d="M25.8948 55.9983H12.9474L12.9474 68.9459H25.8948V55.9983Z"/>
<path fill-opacity="0.8" fill="#F36D50" d="M38.8421 55.9983H25.8947L25.8947 68.9459H38.8421V55.9983Z"/>
<path fill="white" d="M38.8421 68.9457H25.8947L25.8947 81.8932H38.8421V68.9457Z"/>
<path stroke-width="0.5" stroke-opacity="0.8" stroke="#F36D50" d="M38.6901 69.0977H26.0467L26.0467 81.7413H38.6901V69.0977Z"/>
<path fill="white" d="M51.7895 55.9983H38.8421V68.9459H51.7895V55.9983Z"/>
<path stroke-width="0.5" stroke-opacity="0.8" stroke="#F36D50" d="M51.6375 56.1503H38.9941V68.7939H51.6375V56.1503Z"/>
<path fill-opacity="0.8" fill="#F36D50" d="M51.7895 68.9457H38.8421V81.8932H51.7895V68.9457Z"/>
<path fill="white" d="M51.7895 81.8933H38.8421V94.8409H51.7895V81.8933Z"/>
<path stroke-width="0.5" stroke-opacity="0.8" stroke="#F36D50" d="M51.6375 82.0453H38.9941V94.6889H51.6375V82.0453Z"/>
<path fill-opacity="0.8" fill="#F36D50" d="M64.7369 81.8933H51.7895V94.8409H64.7369V81.8933Z"/>
<path fill-opacity="0.8" fill="#DE707B" d="M90.6315 81.8933H77.6841V94.8409H90.6315V81.8933Z"/>
<path fill-opacity="0.8" fill="#77B881" d="M75.8985 35.0144H62.9511V47.962H75.8985V35.0144Z"/>
<path fill-opacity="0.8" fill="#77B881" d="M88.8459 35.0144H75.8985V47.962H88.8459V35.0144Z"/>
<path fill-opacity="0.8" fill="#77B881" d="M88.8459 22.0669L75.8985 22.0669V35.0144H88.8459V22.0669Z"/>
<path fill="white" d="M101.793 35.0144H88.846V47.962H101.793V35.0144Z"/>
<path stroke-width="0.5" stroke-opacity="0.8" stroke="#77B881" d="M101.641 35.1664H88.998V47.81H101.641V35.1664Z"/>
<path fill-opacity="0.8" fill="#77B881" d="M101.793 22.0669L88.846 22.0669V35.0144H101.793V22.0669Z"/>
<path fill="white" d="M114.741 22.0669L101.793 22.0669V35.0144H114.741V22.0669Z"/>
<path stroke-width="0.5" stroke-opacity="0.8" stroke="#77B881" d="M114.589 22.2188L101.945 22.2188V34.8624H114.589V22.2188Z"/>
<path fill-opacity="0.8" fill="#77B881" d="M114.741 35.0144H101.793V47.962H114.741V35.0144Z"/>
<path fill="white" d="M88.8459 47.9619H75.8985V60.9095H88.8459V47.9619Z"/>
<path stroke-width="0.5" stroke-opacity="0.8" stroke="#77B881" d="M88.6939 48.1139H76.0505V60.7575H88.6939V48.1139Z"/>
<path fill="white" d="M114.741 9.11932L101.793 9.11932V22.0669H114.741V9.11932Z"/>
<path stroke-width="0.5" stroke-opacity="0.8" stroke="#77B881" d="M114.589 9.2713L101.945 9.2713V21.9149H114.589V9.2713Z"/>
<path fill="white" d="M101.793 47.9619H88.846V60.9095H101.793V47.9619Z"/>
<path stroke-width="0.5" stroke-opacity="0.8" stroke="#77B881" d="M101.641 48.1139H88.998V60.7575H101.641V48.1139Z"/>
<path fill-opacity="0.8" fill="#77B881" d="M127.688 9.11932L114.74 9.11932V22.0669H127.688V9.11932Z"/>
<path fill-opacity="0.8" fill="#8DC7E4" d="M140.635 35.0144H127.688V47.962H140.635V35.0144Z"/>
<path fill-opacity="0.8" fill="#8DC7E4" d="M153.583 47.9619H140.635V60.9095H153.583V47.9619Z"/>
<path fill-opacity="0.8" fill="#9899CC" d="M179.477 47.9619H166.53V60.9095H179.477V47.9619Z"/>
<path fill="white" d="M192.425 60.9097H179.478V73.8573H192.425V60.9097Z"/>
<path stroke-width="0.5" stroke-opacity="0.8" stroke="#9899CC" d="M192.273 61.0617H179.63V73.7053H192.273V61.0617Z"/>
<path fill-opacity="0.8" fill="#9899CC" d="M205.372 60.9097H192.425V73.8573H205.372V60.9097Z"/>
<path fill="white" d="M205.372 73.8568H192.425V86.8043H205.372V73.8568Z"/>
<path stroke-width="0.5" stroke-opacity="0.8" stroke="#9899CC" d="M205.22 74.0087H192.577V86.6523H205.22V74.0087Z"/>
<path fill="white" d="M140.635 60.9097H127.688V73.8573H140.635V60.9097Z"/>
<path stroke-width="0.5" stroke-opacity="0.8" stroke="#8DC7E4" d="M140.483 61.0617H127.84V73.7053H140.483V61.0617Z"/>
<path fill-opacity="0.8" fill="#8DC7E4" d="M153.583 22.0669L140.635 22.0669V35.0144H153.583V22.0669Z"/>
<path fill="white" d="M166.53 22.0669L153.583 22.0669V35.0144H166.53V22.0669Z"/>
<path stroke-width="0.5" stroke-opacity="0.8" stroke="#8DC7E4" d="M166.378 22.2188L153.735 22.2188V34.8624H166.378V22.2188Z"/>
<path fill-opacity="0.8" fill="#DE707B" d="M103.579 81.8933H90.6315V94.8409H103.579V81.8933Z"/>
<path fill-opacity="0.8" fill="#DE707B" d="M116.526 81.8933H103.579V94.8409H116.526V81.8933Z"/>
<path fill="white" d="M129.474 81.8933H116.526V94.8409H129.474V81.8933Z"/>
<path stroke-width="0.5" stroke-opacity="0.8" stroke="#DE707B" d="M129.322 82.0453H116.678V94.6889H129.322V82.0453Z"/>
</svg>